<svg id="businessday" xmlns="http://www.w3.org/2000/svg" width="161.951" height="33.781" viewBox="0 0 161.951 33.781">
  <path id="Path_870" data-name="Path 870" d="M23.676,474.065c.221-.156.264-.266.043-.444-1.46-1.127-2.943-2.256-4.381-3.406a17.825,17.825,0,0,1-1.747-1.415H17.57v9.91h.022c.178-.155.376-.309.554-.464,1.829-1.371,3.672-2.788,5.531-4.181" transform="translate(-16.795 -457.096)" fill="#787879"/>
  <path id="Path_871" data-name="Path 871" d="M174.861,398.8c0-.332-.066-.4-.4-.4H13.309c-.332,0-.4.067-.4.4v7.481h0v18.8h0v6.7c0,.333.066.4.4.4H174.44c.332,0,.4-.067.4-.4.023-11.017.023-21.989.023-32.982m-.775,32.165c0,.354-.088.442-.442.442H14.127c-.4,0-.442-.133-.442-.466V420.058h-.022v-9.911h.022V399.64c0-.354.088-.444.442-.444H173.644c.354,0,.442.066.442.444v31.323" transform="translate(-12.91 -398.4)" fill="#fff"/>
  <path id="Path_872" data-name="Path 872" d="M138.239,412.8c0-.575,0-.575-.554-.575H30.841a3.11,3.11,0,0,1-.465,0c-.243-.022-.309.09-.309.311v8.45a.429.429,0,0,0,.176.4c.775.6,1.549,1.217,2.327,1.814,1.473,1.15,2.959,2.288,4.442,3.43-.4.309-.751.618-1.129.906-1.814,1.371-3.649,2.743-5.463,4.115a.744.744,0,0,0-.354.687c.022,2.7.022,5.42,0,8.119,0,.419.088.552.552.552q53.555-.033,107.134,0c.421,0,.509-.11.509-.509-.022-9.2-.022-18.453-.022-27.7m-92.953,20.86a4.3,4.3,0,0,1-3.275,1.549,7.13,7.13,0,0,1-1.526-.088,21.2,21.2,0,0,0-3.76.022h-.376l-.221-.221a.249.249,0,0,1,.2-.288h.043c.332-.022.687.043.908-.266a1.963,1.963,0,0,0,.288-1.217q.065-1.626.066-3.252v-9.689c0-.288-.023-.6-.045-.884a1,1,0,0,0-.973-1.041l-.51-.066c-.131,0-.264-.043-.264-.2a.259.259,0,0,1,.288-.244H37.5c.264,0,.509.023.775.023h.773a20.324,20.324,0,0,1,3.275.043,3.214,3.214,0,0,1,2.826,3.739,5.131,5.131,0,0,1-1.681,3.34c-.244.221-.288.311.065.487a5.491,5.491,0,0,1,1.749,8.251M62.3,418.245c-.861.133-1.017.264-1.061,1.127-.155,2.3-.045,4.58-.066,6.881A25.992,25.992,0,0,1,61,429.968a7.357,7.357,0,0,1-1.355,3.584,5.181,5.181,0,0,1-5,1.814c-2.853-.309-4.048-2.279-4.512-4.557a14.752,14.752,0,0,1-.266-2.964v-7.611c0-.221,0-.464-.022-.685-.066-.908-.332-1.172-1.239-1.305-.2-.023-.554.11-.509-.244s.354-.2.575-.2c1.548.022,3.1.065,4.645,0l.376.022.178.221-.178.2h-.043c-1.174.288-1.2.288-1.262,1.5-.043.863-.043,1.7-.022,2.565.022,2.455-.111,4.889.088,7.345a6.5,6.5,0,0,0,.665,2.66,3.078,3.078,0,0,0,2.964,1.769,3.127,3.127,0,0,0,2.854-2.08A7.758,7.758,0,0,0,59.446,429c.022-.753.022-1.5.022-2.234v-6.6a6.38,6.38,0,0,0-.022-.642c-.088-.861-.332-1.127-1.217-1.239l-.221-.022c-.155,0-.309-.045-.288-.243s.155-.2.309-.2h.09c1.372.022,2.765.043,4.136,0,.176,0,.421-.045.421.221.022.221-.221.176-.377.2m9.27,15.793a3.6,3.6,0,0,1-2.494,1.282,7.2,7.2,0,0,1-3.428-.354c-.642-.264-.708-.352-.708-1.039.022-1,.066-1.995.088-2.992v-.126c.066-.133,0-.4.244-.376s.155.243.155.376a5.723,5.723,0,0,0,.243,1.371,2.8,2.8,0,0,0,3.119,1.995,2.656,2.656,0,0,0,2.1-2.677,3.717,3.717,0,0,0-1.548-3.228,23.937,23.937,0,0,1-2.544-2.146,5.53,5.53,0,0,1-1.305-5.486,4.3,4.3,0,0,1,3.96-3.1,9.142,9.142,0,0,1,2.776.3.449.449,0,0,1,.376.554c-.022.421,0,.863,0,1.283h-.022c0,.509.022,1.017,0,1.526,0,.155.022.4-.221.4s-.155-.243-.176-.4a2.563,2.563,0,0,0-1.438-2.3,2.527,2.527,0,0,0-2.625.294,2.726,2.726,0,0,0-.176,3.893,11.206,11.206,0,0,0,1.829,1.526,6.845,6.845,0,0,1,2.765,3.325,5.862,5.862,0,0,1-.973,6.106m9.291,1.106c-.332,0-.687.022-1.017,0a22.569,22.569,0,0,0-3.451,0c-.244.022-.487,0-.73,0-.155,0-.288-.045-.311-.221s.111-.266.266-.266c.332-.022.708.045.929-.288a2.391,2.391,0,0,0,.266-1.194c.088-2.161.088-4.336.067-6.483s0-4.292-.023-6.437c0-.266-.022-.532-.043-.82-.066-.84-.288-1.061-1.107-1.172-.176-.022-.421.022-.421-.243s.266-.221.444-.221h4.645c.176,0,.421-.045.421.221s-.221.2-.376.221c-.863.133-1,.288-1.062,1.127-.045.465-.066.908-.066,1.371v11.188c0,.532.045,1.086.066,1.616.043.751.332,1.039,1.084,1.084h.376c.178,0,.421,0,.421.243s-.2.266-.376.266m17.289-16.924c-1.084.221-1.127.244-1.239,1.33-.133,1.393-.043,2.786-.088,4.181-.066,3.539-.11,7.057-.155,10.6v.419c-.045.221,0,.532-.266.62s-.464-.111-.618-.288c-.377-.442-.753-.908-1.107-1.35-2.853-3.539-5.707-7.079-8.312-10.817l-.176-.221c0,1.461-.023,2.9,0,4.336.043,1.947.11,3.893.155,5.84a3.5,3.5,0,0,0,.11.841c.155.665.4.863,1.107.884l.288.023c.131.022.288.043.288.243s-.156.243-.332.243c-.266,0-.509.023-.775,0a30.955,30.955,0,0,0-3.491,0c-.178,0-.442.09-.465-.221s.266-.264.465-.288c.8-.043,1.017-.221,1.062-1,.155-2.7.131-5.4.176-8.118.045-2.455.066-4.932.088-7.388v-.178c.045-.176.045-.442.266-.487s.354.156.464.311c1.084,1.438,2.161,2.876,3.275,4.312,2.145,2.766,4.291,5.552,6.392,8.362l.111.133.066-.421c-.045-3.361-.111-6.725-.178-10.086a5.925,5.925,0,0,0-.088-.886c-.11-.665-.421-.884-1.239-.951-.2-.022-.509.088-.509-.221s.309-.221.53-.221c1.283.022,2.588.066,3.872,0h.266l.243.2c.088.2-.022.243-.178.264m11.88,13.76a17.918,17.918,0,0,1-.243,2.677.6.6,0,0,1-.687.575c-1.039-.022-2.08,0-3.119-.088a30.139,30.139,0,0,0-4.469.022,2.745,2.745,0,0,1-.421-.022l-.176-.2.155-.266.133-.043c1.017-.2,1.15-.332,1.172-1.416q.066-1.857.066-3.716V420.28c0-.309-.022-.62-.045-.929a.974.974,0,0,0-1-1.039c-.178-.023-.377-.045-.554-.066l-.2-.178.178-.2a2.749,2.749,0,0,1,.419-.043c1.2.043,2.389.088,3.23.066h3.584a3.426,3.426,0,0,0,1.26-.2c.221-.088.354-.045.311.2-.156,1.017-.133,2.035-.266,3.052-.022.111-.045.288-.221.266s-.111-.178-.133-.288a2.74,2.74,0,0,0-.022-.421c-.155-.908-.509-1.2-1.416-1.262-.8-.043-1.593-.088-2.389-.088-.243,0-.354.066-.354.332v5.464c0,.176,0,.332.243.309,1.019-.022,2.058-.022,3.076-.066a1.011,1.011,0,0,0,.841-.442l.243-.178.111.311c-.066.73-.133,1.438-.178,2.161-.022.376-.043.773-.043,1.15,0,.133-.045.288-.178.288-.176,0-.155-.178-.155-.288-.133-1.438-.288-1.593-1.747-1.662-.62-.023-1.217-.045-1.829-.09-.243,0-.354.045-.354.332,0,1.77-.022,3.561.023,5.331.022,1.15.509,1.637,1.681,1.7.464.022.908.022,1.372,0a1.6,1.6,0,0,0,1.726-1.571l.066-.376c.043-.133,0-.377.221-.332.11.066.088.288.088.442m9.468,2.058a3.6,3.6,0,0,1-2.494,1.282,7.4,7.4,0,0,1-3.473-.376.887.887,0,0,1-.665-1c.066-1.017.066-2.013.09-3.031v-.131c.065-.133,0-.4.243-.377.2.023.155.244.155.377a4.836,4.836,0,0,0,.243,1.371,2.792,2.792,0,0,0,3.12,1.995,2.661,2.661,0,0,0,2.1-2.677,3.687,3.687,0,0,0-1.571-3.23,24.116,24.116,0,0,1-2.544-2.145,5.539,5.539,0,0,1-1.33-5.376,4.329,4.329,0,0,1,4-3.207,9.193,9.193,0,0,1,2.7.288c.354.088.509.243.465.618a11.4,11.4,0,0,0,0,1.239h-.045c0,.509.022,1.017,0,1.526,0,.133.022.4-.221.4s-.155-.243-.176-.4a2.558,2.558,0,0,0-1.438-2.3,2.524,2.524,0,0,0-2.643.289,2.727,2.727,0,0,0-.176,3.893,11.291,11.291,0,0,0,1.829,1.526,6.85,6.85,0,0,1,2.766,3.325,5.845,5.845,0,0,1-.953,6.128m11.039-.023a3.657,3.657,0,0,1-2.522,1.33,7.4,7.4,0,0,1-3.466-.386.889.889,0,0,1-.665-1c.066-1.017.066-2.013.111-3.031l.022-.178c.067-.133.022-.354.243-.332.178.022.155.2.155.354a5.186,5.186,0,0,0,.244,1.415,2.788,2.788,0,0,0,3.119,1.995,2.668,2.668,0,0,0,2.1-2.676,3.682,3.682,0,0,0-1.571-3.23,24.1,24.1,0,0,1-2.544-2.146,5.554,5.554,0,0,1-1.33-5.375,4.327,4.327,0,0,1,4-3.208,9.307,9.307,0,0,1,2.7.288c.332.088.509.244.464.62a11.4,11.4,0,0,0,0,1.238h-.045c0,.509.023,1.017,0,1.526,0,.155.023.4-.221.4s-.155-.244-.176-.4a2.563,2.563,0,0,0-1.438-2.3,2.494,2.494,0,0,0-2.61.288,2.728,2.728,0,0,0-.178,3.893,11.058,11.058,0,0,0,1.837,1.526,6.892,6.892,0,0,1,2.765,3.275,5.976,5.976,0,0,1-1,6.1" transform="translate(-27.212 -409.926)" fill="#787879"/>
  <path id="Path_873" data-name="Path 873" d="M733.7,412.24H686.914c-.554,0-.554,0-.554.554v27.668c0,.552,0,.552.554.552h46.807c.554,0,.554,0,.554-.552V412.838c.022-.6.022-.6-.575-.6m-36.5,23.006a19.671,19.671,0,0,1-4.424-.133,16.7,16.7,0,0,0-2.08,0c-.376.023-.775.023-1.15.045-.176,0-.354,0-.354-.243s.178-.244.332-.244c.929.022,1.061-.376,1.127-1.239s.09-1.7.09-2.567V419.718c-.045-1.039-.354-1.372-1.372-1.438l-.266-.022-.221-.221c0-.133.11-.2.221-.221l.376-.023c1.15-.022,2.3.133,3.518.023a31.333,31.333,0,0,1,5.177.176,6.448,6.448,0,0,1,5.463,4.866,10.857,10.857,0,0,1-1.084,9.158,7.116,7.116,0,0,1-5.353,3.23m21.811-.11c-1.348,0-2.7.043-4.048-.066-.133-.023-.332.066-.4-.155s.133-.223.243-.288a.332.332,0,0,0,.133-.444c-.464-1.548-.951-3.1-1.416-4.623a.276.276,0,0,0-.354-.2h-4c-.176,0-.288.022-.354.221-.4,1.348-.929,2.66-1.194,4.025-.133.665-.023,1.15.831,1.062.178-.022.4-.022.4.266s-.221.243-.4.243a34.967,34.967,0,0,0-4,0c-.178,0-.4.023-.4-.243,0-.221.178-.266.354-.266a1.511,1.511,0,0,0,1.571-1.127c.442-1.2.84-2.412,1.26-3.606,1.33-3.938,2.676-7.853,4-11.792.088-.266.133-.618.464-.642.376-.022.421.376.509.642,1.571,4.623,3.119,9.225,4.69,13.848a8.589,8.589,0,0,0,.841,1.9,1.393,1.393,0,0,0,1.33.775c.178,0,.421-.022.4.244-.067.243-.288.221-.466.221m11.848-16.879a2.058,2.058,0,0,0-1.593,1.084,62.812,62.812,0,0,0-3.1,6.061,6.815,6.815,0,0,0-.863,2.432c-.022.354-.043.708-.043,1.062.022,1.549-.067,3.1.067,4.646.067.8.354,1.061,1.164,1.106a4,4,0,0,1,.509.022c.155.022.288.088.288.266a.274.274,0,0,1-.309.221c-.466,0-.908.022-1.372-.022a31.993,31.993,0,0,0-3.85.022h-.332l-.221-.221.2-.244.244-.022c.708-.043.973-.264,1.017-.973a39.639,39.639,0,0,0,.022-5.619,4.394,4.394,0,0,0-.53-1.662c-1.017-2.035-2.035-4.093-3.076-6.128a8.128,8.128,0,0,0-.73-1.2,1.914,1.914,0,0,0-1.26-.818c-.155-.022-.311-.045-.288-.243s.176-.221.354-.221c1.46.043,2.9.043,4.357,0,.133,0,.309,0,.333.176s-.133.243-.266.266c-.376.088-.442.354-.332.685l.111.333c1.039,2.277,2.056,4.535,3.14,6.9.953-2.389,2.161-4.512,2.921-6.857.2-.64.133-.751-.465-1.084l-.155-.264.221-.155h.133c1.238.065,2.479.043,3.717,0,.155,0,.309,0,.332.176-.022.2-.176.243-.354.266" transform="translate(-574.404 -409.939)" fill="#787879"/>
  <path id="Path_874" data-name="Path 874" d="M364.314,443.972h-.264c-1.283.065-2.588.022-3.872,0-.2,0-.509-.066-.53.221s.309.2.509.221c.818.066,1.127.288,1.239.951a5.905,5.905,0,0,1,.088.884c.067,3.363.133,6.725.178,10.066l-.067.419-.111-.131c-2.1-2.81-4.247-5.6-6.392-8.362-1.107-1.416-2.191-2.876-3.275-4.314-.11-.155-.243-.354-.464-.309s-.221.309-.266.485v.178c-.022,2.455-.043,4.932-.088,7.388-.045,2.7,0,5.4-.178,8.119-.043.775-.264.973-1.061,1.017-.2,0-.487-.045-.465.288s.288.221.465.221a30.565,30.565,0,0,1,3.491,0c.244.022.509,0,.775,0,.176,0,.332-.045.332-.243s-.155-.223-.286-.244l-.288-.022c-.687-.045-.953-.243-1.107-.884a3.5,3.5,0,0,1-.11-.841c-.067-1.947-.133-3.893-.155-5.84-.023-1.438,0-2.9,0-4.336l.176.221c2.61,3.717,5.464,7.257,8.312,10.817.354.464.73.906,1.107,1.35.155.176.352.376.618.288s.244-.4.266-.62a2.749,2.749,0,0,0,0-.421c.043-3.539.088-7.057.155-10.6.022-1.393-.067-2.786.066-4.181.11-1.084.155-1.084,1.239-1.33.133-.022.243-.088.243-.243Z" transform="translate(-293.372 -436.095)" fill="#fff"/>
  <path id="Path_875" data-name="Path 875" d="M72.372,453.355c-.332-.176-.309-.264-.066-.485a5.144,5.144,0,0,0,1.682-3.341,3.24,3.24,0,0,0-2.826-3.739,26.887,26.887,0,0,0-3.273-.043H67.1c-.264,0-.509-.022-.775-.022H64.958c-.155,0-.288.065-.288.243s.133.2.266.2a3.765,3.765,0,0,1,.509.066,1,1,0,0,1,.974,1.039c.022.288.043.6.043.884,0,3.23.023,6.46,0,9.69,0,1.084-.043,2.161-.066,3.252a2.11,2.11,0,0,1-.288,1.217c-.221.309-.575.243-.906.264h-.045c-.133.045-.221.111-.2.288l.223.221h.376a23.4,23.4,0,0,1,3.739-.022,8.87,8.87,0,0,0,1.526.088,4.4,4.4,0,0,0,3.273-1.548,5.439,5.439,0,0,0-1.726-8.252m-3.074-6.6a1.862,1.862,0,0,1,1.923.818,4.48,4.48,0,0,1,.288,4.58,2.154,2.154,0,0,1-2.544.818c-.2-.088-.155-.243-.155-.4v-2.695c0-.863.022-1.747,0-2.61,0-.354.155-.464.487-.509m3.228,14.091a2.176,2.176,0,0,1-3.159.841.968.968,0,0,1-.442-.73,7.064,7.064,0,0,1-.088-1.371v-5.089c0-.354.111-.421.442-.442a2.817,2.817,0,0,1,2.677,1.416,6.3,6.3,0,0,1,1.017,3.273,5.778,5.778,0,0,1-.442,2.1" transform="translate(-56.065 -437.848)" fill="#fff"/>
  <path id="Path_876" data-name="Path 876" d="M152.907,445.614c-1.372.043-2.765.022-4.136,0h-.088c-.156,0-.311.022-.311.221s.133.221.288.221l.221.022c.886.111,1.129.376,1.217,1.239a5.91,5.91,0,0,1,.023.642v6.591c0,.753,0,1.5-.023,2.234a7.745,7.745,0,0,1-.509,3.009,3.105,3.105,0,0,1-2.853,2.08,3.027,3.027,0,0,1-2.964-1.771,6.428,6.428,0,0,1-.665-2.66c-.176-2.455-.043-4.889-.088-7.345,0-.863-.022-1.7.045-2.567.066-1.217.088-1.217,1.26-1.5h.045l.176-.2-.176-.2-.376-.022c-1.549.065-3.1.022-4.646,0-.2,0-.53-.133-.575.2s.332.221.509.244c.908.133,1.174.4,1.239,1.305a6.741,6.741,0,0,1,.023.685v7.611a14.873,14.873,0,0,0,.259,2.967c.465,2.278,1.637,4.248,4.513,4.557a5.2,5.2,0,0,0,5-1.814,7.179,7.179,0,0,0,1.35-3.584,26.236,26.236,0,0,0,.176-3.715c.023-2.3-.065-4.58.066-6.881.045-.863.2-1,1.062-1.127.155-.023.4.022.4-.221-.066-.266-.288-.244-.465-.221" transform="translate(-117.845 -437.738)" fill="#fff"/>
  <path id="Path_877" data-name="Path 877" d="M463.581,459.005c-.221-.045-.176.2-.221.332l-.066.376a1.6,1.6,0,0,1-1.726,1.571c-.464.022-.908.022-1.371,0-1.15-.066-1.662-.554-1.681-1.7-.023-1.771,0-3.563-.023-5.331,0-.288.133-.333.354-.333.62.022,1.217.067,1.837.088,1.438.045,1.614.2,1.747,1.662,0,.133-.022.288.155.288s.178-.176.178-.288c.022-.376.022-.773.043-1.15.045-.73.111-1.438.178-2.161l-.111-.309-.243.176a1.012,1.012,0,0,1-.841.444c-1.017.043-2.056.043-3.074.065-.223,0-.244-.155-.244-.309v-5.476c0-.264.088-.332.354-.332.8,0,1.593.043,2.389.088.929.067,1.262.354,1.416,1.262a2.723,2.723,0,0,1,.022.419c0,.111-.022.266.133.288s.2-.155.221-.264c.133-1.017.088-2.035.266-3.054.043-.243-.09-.288-.311-.2a3.426,3.426,0,0,1-1.26.2h-3.584c-.84.023-2.035-.022-3.23-.067a2.754,2.754,0,0,0-.419.045l-.178.2.2.176c.176.023.376.045.554.066.665.111.951.376,1,1.041.023.309.045.618.045.929,0,3.074.022,6.151.022,9.223,0,1.24-.043,2.479-.066,3.717-.022,1.084-.155,1.217-1.172,1.415l-.133.023-.161.261.178.2a2.527,2.527,0,0,0,.419.023,29.94,29.94,0,0,1,4.469-.023c1.041.088,2.08.066,3.12.088a.6.6,0,0,0,.685-.575,15.461,15.461,0,0,0,.243-2.676c.045-.176.066-.4-.11-.419" transform="translate(-380.914 -437.347)" fill="#fff"/>
  <path id="Path_878" data-name="Path 878" d="M599.3,451.22a10.741,10.741,0,0,1-1.829-1.526,2.71,2.71,0,0,1,.176-3.893,2.527,2.527,0,0,1,2.633-.288,2.559,2.559,0,0,1,1.438,2.3c.022.155-.067.4.176.4s.2-.243.221-.4c.023-.509,0-1.017,0-1.526h.045c0-.421-.022-.82,0-1.24.045-.376-.111-.53-.464-.618a9.257,9.257,0,0,0-2.7-.288,4.3,4.3,0,0,0-4,3.207,5.529,5.529,0,0,0,1.33,5.376,21.613,21.613,0,0,0,2.543,2.146,3.718,3.718,0,0,1,1.571,3.228,2.678,2.678,0,0,1-2.1,2.677,2.768,2.768,0,0,1-3.119-1.995,5.2,5.2,0,0,1-.244-1.416c0-.133.023-.332-.155-.354-.221-.022-.2.2-.243.332l-.022.176c-.023,1.017-.045,2.013-.111,3.031a.888.888,0,0,0,.665,1,7.723,7.723,0,0,0,3.473.376,3.747,3.747,0,0,0,2.545-1.33,5.954,5.954,0,0,0,.951-6.128,7.184,7.184,0,0,0-2.766-3.252" transform="translate(-497.763 -436.53)" fill="#fff"/>
  <path id="Path_879" data-name="Path 879" d="M533.074,451.22a10.743,10.743,0,0,1-1.829-1.526,2.729,2.729,0,0,1,.176-3.893,2.527,2.527,0,0,1,2.633-.288,2.559,2.559,0,0,1,1.438,2.3c.022.155-.067.4.176.4s.2-.264.221-.4c.023-.509,0-1.017,0-1.526h.045c0-.421-.022-.82,0-1.24.045-.376-.11-.53-.464-.618a9.257,9.257,0,0,0-2.7-.288,4.279,4.279,0,0,0-4,3.207,5.584,5.584,0,0,0,1.33,5.376,23.909,23.909,0,0,0,2.544,2.146,3.719,3.719,0,0,1,1.571,3.228,2.678,2.678,0,0,1-2.1,2.677,2.768,2.768,0,0,1-3.119-1.995,5.805,5.805,0,0,1-.254-1.37c0-.155.045-.354-.155-.376-.243-.023-.2.243-.243.376v.133c-.022,1.017-.045,2.013-.088,3.031a.888.888,0,0,0,.665,1,7.745,7.745,0,0,0,3.473.377,3.742,3.742,0,0,0,2.494-1.283,5.925,5.925,0,0,0,1-6.106,7.029,7.029,0,0,0-2.81-3.34" transform="translate(-442.577 -436.53)" fill="#fff"/>
  <path id="Path_880" data-name="Path 880" d="M244.651,451.192a10.673,10.673,0,0,1-1.829-1.526,2.726,2.726,0,0,1,.176-3.893,2.527,2.527,0,0,1,2.633-.288,2.559,2.559,0,0,1,1.438,2.3c.022.155-.066.4.176.4s.2-.264.221-.4c.022-.509,0-1.017,0-1.526h.045c0-.421-.023-.863,0-1.283a.465.465,0,0,0-.377-.554,8.446,8.446,0,0,0-2.786-.309,4.282,4.282,0,0,0-3.96,3.1,5.518,5.518,0,0,0,1.305,5.486,21.468,21.468,0,0,0,2.544,2.146,3.65,3.65,0,0,1,1.549,3.228,2.7,2.7,0,0,1-2.1,2.677,2.77,2.77,0,0,1-3.12-1.995,5.807,5.807,0,0,1-.243-1.372c0-.155.045-.354-.176-.376s-.178.243-.244.376v.133c-.022,1-.066,1.995-.088,2.992-.022.687.045.8.708,1.039a6.927,6.927,0,0,0,3.428.354,3.729,3.729,0,0,0,2.494-1.282,5.952,5.952,0,0,0,1-6.128,6.864,6.864,0,0,0-2.788-3.3" transform="translate(-202.089 -436.503)" fill="#fff"/>
  <path id="Path_881" data-name="Path 881" d="M307.723,462.6h-.376c-.751-.045-1.039-.333-1.084-1.084-.043-.53-.067-1.084-.067-1.616V448.718c0-.464.023-.906.067-1.372.066-.863.2-1,1.062-1.127.155-.023.4.022.376-.221s-.243-.221-.421-.221h-4.645c-.178,0-.421-.023-.442.221s.243.221.421.243c.818.111,1.039.354,1.106,1.172.022.266.045.532.045.82,0,2.145.022,4.291.022,6.437s.022,4.336-.066,6.483a2.213,2.213,0,0,1-.266,1.194c-.244.362-.6.266-.929.288-.155.022-.288.088-.264.266s.155.221.309.221c.243,0,.487.022.73,0a22.56,22.56,0,0,1,3.451,0c.332.022.685,0,1.017,0,.2,0,.4.022.4-.243s-.244-.266-.444-.266" transform="translate(-254.101 -437.9)" fill="#fff"/>
  <path id="Path_882" data-name="Path 882" d="M716.284,450.695a6.472,6.472,0,0,0-5.463-4.866,31.4,31.4,0,0,0-5.177-.176c-1.217.11-2.367-.045-3.518-.023l-.376.023c-.111.022-.221.065-.221.2l.221.221.266.023c1.039.088,1.348.421,1.372,1.438v11.148c0,.863-.023,1.7-.09,2.567s-.2,1.26-1.127,1.239c-.155,0-.333.043-.333.243,0,.244.178.266.354.244.376,0,.775-.023,1.151-.045a16.084,16.084,0,0,1,2.08,0,21.072,21.072,0,0,0,4.424.133,7,7,0,0,0,5.353-3.23,10.9,10.9,0,0,0,1.084-9.143m-2.826,8.252a4.565,4.565,0,0,1-4.269,2.992,5.7,5.7,0,0,1-2.035-.155,1.48,1.48,0,0,1-1.217-1.571c-.133-2.1-.067-4.2-.067-5.353v-7.17c0-.665.11-.8.775-.863,3.34-.288,6.1,1.35,7.012,4.535a11.729,11.729,0,0,1-.2,7.587" transform="translate(-587.052 -437.776)" fill="#fcfdff"/>
  <path id="Path_883" data-name="Path 883" d="M807.413,460.9a1.426,1.426,0,0,1-1.33-.775,9.739,9.739,0,0,1-.841-1.9c-1.569-4.623-3.119-9.225-4.69-13.848-.088-.266-.131-.665-.509-.642-.333.022-.376.376-.464.642-1.33,3.937-2.677,7.853-4,11.79-.419,1.217-.818,2.412-1.26,3.606a1.5,1.5,0,0,1-1.571,1.129c-.176-.022-.354.022-.354.266s.221.243.4.243a34.217,34.217,0,0,1,4,0c.178.022.4.045.4-.243s-.221-.266-.4-.266c-.863.066-.973-.4-.831-1.062.288-1.371.818-2.677,1.194-4.026.067-.2.178-.221.354-.221h4c.176,0,.309.023.352.2.466,1.549.953,3.1,1.416,4.623a.368.368,0,0,1-.133.442c-.11.066-.288.111-.243.288.043.221.243.155.4.155,1.35.111,2.7.066,4.048.066.178,0,.4.023.421-.243.066-.243-.155-.221-.354-.221m-6.636-6.592h-2.809c-.131,0-.333.065-.243-.223.62-1.923,1.217-3.824,1.859-5.883.575,1.9,1.129,3.694,1.681,5.486.178.62.178.62-.487.62" transform="translate(-662.807 -436.198)" fill="#fcfdff"/>
  <path id="Path_884" data-name="Path 884" d="M883.267,445.728c-1.239.043-2.477.065-3.715,0h-.133l-.221.155.155.264c.6.333.685.444.464,1.084-.751,2.346-1.968,4.469-2.919,6.858-1.084-2.366-2.125-4.645-3.142-6.9l-.11-.332c-.111-.333-.045-.575.333-.685.133-.045.287-.09.266-.266s-.176-.2-.333-.176c-1.46.043-2.9.043-4.357,0-.155,0-.333,0-.354.221,0,.176.155.2.288.243a1.938,1.938,0,0,1,1.262.818,6.711,6.711,0,0,1,.73,1.2c1.017,2.035,2.056,4.07,3.074,6.128a4.85,4.85,0,0,1,.532,1.662,36.618,36.618,0,0,1-.023,5.619c-.043.73-.309.929-1.017.973l-.243.022-.2.244.219.218h.333a37.148,37.148,0,0,1,3.849-.022c.442.043.908.022,1.372.022a.274.274,0,0,0,.309-.221c.023-.178-.131-.244-.288-.266a3.983,3.983,0,0,0-.509-.022c-.818-.045-1.084-.288-1.172-1.106-.133-1.549-.043-3.1-.067-4.646,0-.354.023-.708.045-1.062a7.734,7.734,0,0,1,.863-2.432,62.057,62.057,0,0,1,3.1-6.061,2.2,2.2,0,0,1,1.593-1.084c.176-.023.332-.066.309-.266.045-.2-.133-.2-.287-.176" transform="translate(-726.848 -437.852)" fill="#fcfdff"/>
  <path id="Path_885" data-name="Path 885" d="M89.984,496.024c-.332.023-.442.09-.442.444.022,1.7,0,3.383,0,5.087a7.169,7.169,0,0,0,.088,1.372,1.014,1.014,0,0,0,.442.73,2.176,2.176,0,0,0,3.159-.84,5,5,0,0,0,.421-2.08,6.2,6.2,0,0,0-1.017-3.275,2.748,2.748,0,0,0-2.66-1.438" transform="translate(-76.799 -479.787)" fill="#787879"/>
  <path id="Path_886" data-name="Path 886" d="M89.67,455.188v2.7c0,.155-.043.309.155.4a2.155,2.155,0,0,0,2.545-.818,4.534,4.534,0,0,0-.288-4.578,1.858,1.858,0,0,0-1.925-.82c-.354.045-.487.155-.487.532.022.84,0,1.726,0,2.588" transform="translate(-76.906 -443.131)" fill="#787879"/>
  <path id="Path_887" data-name="Path 887" d="M728.34,452.831c-.665.067-.775.2-.775.863v7.167c.022,1.129-.067,3.252.066,5.355a1.458,1.458,0,0,0,1.217,1.569,5.284,5.284,0,0,0,2.035.156,4.547,4.547,0,0,0,4.269-2.992,11.671,11.671,0,0,0,.2-7.566c-.906-3.208-3.672-4.846-7.012-4.552" transform="translate(-608.752 -443.754)" fill="#787879"/>
  <path id="Path_888" data-name="Path 888" d="M826.229,470.66c-.642,2.035-1.239,3.96-1.859,5.883-.088.311.111.223.243.223h2.81c.665,0,.665,0,.466-.62-.53-1.792-1.084-3.584-1.662-5.486" transform="translate(-689.453 -458.647)" fill="#787879"/>
</svg>
