<svg xmlns="http://www.w3.org/2000/svg" width="160" height="40" viewBox="0 0 160 40">
  <g id="chigisoft-dumo" transform="translate(-697 -613)">
    <rect id="Rectangle_3900" data-name="Rectangle 3900" width="160" height="40" rx="7" transform="translate(697 613)" fill="#eff0f2"/>
    <g id="chigisoft-logo" transform="translate(713.918 622.497)">
      <g id="chigisoft-logo-2" data-name="chigisoft-logo" transform="translate(0 0)">
        <g id="Group_1167" data-name="Group 1167">
          <path id="Path_1330" data-name="Path 1330" d="M13.124,21.006H7.863A7.858,7.858,0,0,1,0,13.136V7.87A7.858,7.858,0,0,1,7.863,0h5.279a7.87,7.87,0,0,1,7.863,7.87v5.284A7.882,7.882,0,0,1,13.124,21.006Z" fill="#7d8184"/>
          <path id="Path_1331" data-name="Path 1331" d="M20.011,18.6h6.452a8.81,8.81,0,1,1,0-1.777H20.011a1.767,1.767,0,0,0-1.738-1.462H17.09a1.768,1.768,0,0,0-1.756,1.758V18.3a1.757,1.757,0,0,0,1.756,1.758h1.183A1.785,1.785,0,0,0,20.011,18.6Z" transform="translate(-7.197 -7.197)" fill="#fff"/>
          <path id="Path_1332" data-name="Path 1332" d="M52.51,51.386a1.2,1.2,0,0,1-1.205,1.205,1.242,1.242,0,0,1-.593-.153,1.206,1.206,0,0,1-.612-1.052A1.188,1.188,0,0,1,51.19,50.2h.1A1.2,1.2,0,0,1,52.51,51.386Z" transform="translate(-40.821 -40.892)" fill="#fff"/>
        </g>
      </g>
      <g id="Layer_1-2" transform="translate(28.102 4.402)">
        <path id="Path_1385" data-name="Path 1385" d="M133.781,37.04a5.629,5.629,0,0,1-2.189-2.13,6.453,6.453,0,0,1,0-6.21,5.63,5.63,0,0,1,2.189-2.13,6.844,6.844,0,0,1,5.871-.219,5.34,5.34,0,0,1,2.03,1.612l-1.055.975a1.388,1.388,0,0,1-1.791.1,3.032,3.032,0,0,0-1.791-.557,3.1,3.1,0,0,0-1.612.418,2.777,2.777,0,0,0-1.095,1.154,4.153,4.153,0,0,0,0,3.463,2.665,2.665,0,0,0,1.095,1.154,3.246,3.246,0,0,0,1.612.418,3.033,3.033,0,0,0,1.791-.557,1.413,1.413,0,0,1,1.791.1l1.055.975a5.34,5.34,0,0,1-2.03,1.612,6.464,6.464,0,0,1-2.747.557A6.184,6.184,0,0,1,133.781,37.04Z" transform="translate(-130.795 -25.793)" fill="#7d8184"/>
        <path id="Path_1386" data-name="Path 1386" d="M205.067,27V37.051a1.453,1.453,0,0,1-1.433,1.493h-1.712v-4.5h-4.279v3.005a1.453,1.453,0,0,1-1.433,1.493H194.5V28.493A1.466,1.466,0,0,1,195.931,27h1.712v4.339h4.279V28.493A1.465,1.465,0,0,1,203.355,27Z" transform="translate(-181.819 -26.76)" fill="#7d8184"/>
        <path id="Path_1387" data-name="Path 1387" d="M259.743,27v1.453L256.6,30.264V28.473A1.448,1.448,0,0,1,258.031,27Z" transform="translate(-231.56 -26.76)" fill="#7d8184"/>
        <path id="Path_1388" data-name="Path 1388" d="M259.745,36.9v8.081a1.453,1.453,0,0,1-1.433,1.493H256.6V38.711Z" transform="translate(-231.561 -34.689)" fill="#7d8184"/>
        <path id="Path_1389" data-name="Path 1389" d="M346.243,26.92v1.453L343.1,30.184V28.393a1.453,1.453,0,0,1,1.433-1.493h0Z" transform="translate(-300.844 -26.68)" fill="#7d8184"/>
        <path id="Path_1390" data-name="Path 1390" d="M346.245,36.9v8.081a1.453,1.453,0,0,1-1.433,1.493H343.1V38.711Z" transform="translate(-300.845 -34.689)" fill="#7d8184"/>
        <path id="Path_1391" data-name="Path 1391" d="M289.35,32.546h1.333v4.777a7.288,7.288,0,0,1-2.189,1.095,8.627,8.627,0,0,1-2.468.378,6.439,6.439,0,0,1-3.145-.756,5.63,5.63,0,0,1-2.189-2.13,6.452,6.452,0,0,1,0-6.21,5.682,5.682,0,0,1,2.209-2.13,6.785,6.785,0,0,1,3.184-.776,7.02,7.02,0,0,1,2.786.537,5.322,5.322,0,0,1,2.07,1.572l-1.075,1.015a1.385,1.385,0,0,1-1.752.139,3.486,3.486,0,0,0-1.871-.557,3.058,3.058,0,0,0-2.289.9,3.3,3.3,0,0,0-.876,2.388,3.439,3.439,0,0,0,.4,1.712,3.01,3.01,0,0,0,1.115,1.174,3.121,3.121,0,0,0,1.632.418,3.762,3.762,0,0,0,1.692-.378V34.039a1.441,1.441,0,0,1,1.433-1.493Z" transform="translate(-250.22 -26.594)" fill="#7d8184"/>
        <path id="Path_1392" data-name="Path 1392" d="M369.97,37.536a6.651,6.651,0,0,1-2.07-.916l.418-.975a1.4,1.4,0,0,1,1.811-.8c.179.06.358.139.537.2a6.33,6.33,0,0,0,1.931.318c1.214,0,1.811-.318,1.811-.935a.79.79,0,0,0-.518-.736,9.836,9.836,0,0,0-1.652-.5,12.542,12.542,0,0,1-2.09-.6,3.75,3.75,0,0,1-1.453-1.035,2.889,2.889,0,0,1-.6-1.911,3.451,3.451,0,0,1,.557-1.911,3.782,3.782,0,0,1,1.652-1.353,6.607,6.607,0,0,1,2.707-.5,8.7,8.7,0,0,1,2.149.259,6.372,6.372,0,0,1,1.871.756l-.418,1.015a1.419,1.419,0,0,1-1.791.836,5.326,5.326,0,0,0-1.851-.318,2.511,2.511,0,0,0-1.373.3.835.835,0,0,0-.418.756.729.729,0,0,0,.5.7,8.043,8.043,0,0,0,1.632.478,13.342,13.342,0,0,1,2.11.6,3.92,3.92,0,0,1,1.453,1.015,2.823,2.823,0,0,1,.617,1.911,3.278,3.278,0,0,1-.557,1.871,3.924,3.924,0,0,1-1.652,1.353,6.575,6.575,0,0,1-2.687.5A11.625,11.625,0,0,1,369.97,37.536Z" transform="translate(-320.71 -25.872)" fill="#7d8184"/>
        <path id="Path_1393" data-name="Path 1393" d="M426.3,37.045a5.728,5.728,0,0,1-2.209-2.149,6.375,6.375,0,0,1,0-6.17,5.732,5.732,0,0,1,2.209-2.149,6.839,6.839,0,0,1,6.329,0,5.727,5.727,0,0,1,2.209,2.149,6.375,6.375,0,0,1,0,6.17,5.731,5.731,0,0,1-2.209,2.149A6.839,6.839,0,0,1,426.3,37.045ZM431,34.7a2.858,2.858,0,0,0,1.075-1.154,3.515,3.515,0,0,0,.4-1.732,3.391,3.391,0,0,0-.4-1.712A2.859,2.859,0,0,0,431,28.945a2.982,2.982,0,0,0-3.045,0,2.858,2.858,0,0,0-1.075,1.154,3.44,3.44,0,0,0-.4,1.712,3.515,3.515,0,0,0,.4,1.732,2.858,2.858,0,0,0,1.075,1.154A2.982,2.982,0,0,0,431,34.7Z" transform="translate(-365.079 -25.799)" fill="#7d8184"/>
        <path id="Path_1394" data-name="Path 1394" d="M495.643,29.528v2.548h4.9V33.11a1.453,1.453,0,0,1-1.433,1.493h-3.463v3.941h-1.711a1.453,1.453,0,0,1-1.433-1.493h0V27h8.7v1.035a1.453,1.453,0,0,1-1.433,1.493Z" transform="translate(-420.509 -26.76)" fill="#7d8184"/>
        <path id="Path_1395" data-name="Path 1395" d="M548.7,29.587h-3.4V27h9.951v1.095a1.466,1.466,0,0,1-1.433,1.493h-1.951v8.956h-1.711a1.453,1.453,0,0,1-1.433-1.493h0V29.587Z" transform="translate(-462.802 -26.76)" fill="#7d8184"/>
        <path id="Path_1396" data-name="Path 1396" d="M604.817,27.3H604.2V27h1.572v.3h-.617V28.95h-.338Z" transform="translate(-509.979 -26.76)" fill="#7d8184"/>
        <path id="Path_1397" data-name="Path 1397" d="M615.092,28.95V27.657l-.6,1.075h-.159l-.6-1.055V28.95H613.4V27h.279l.736,1.294L615.132,27h.279v1.95Z" transform="translate(-517.348 -26.76)" fill="#7d8184"/>
      </g>
    </g>
  </g>
</svg>
