<svg xmlns="http://www.w3.org/2000/svg" width="111" height="22" viewBox="0 0 111 22">
  <g id="dumo-black" transform="translate(0 0.004)">
    <path id="Path_1403" data-name="Path 1403" d="M43.2,3.23A10.141,10.141,0,0,0,35.674.144H26.66v6.4h9.011a4.055,4.055,0,0,1,3.123,1.332,4.914,4.914,0,0,1,1.223,3.454,4.907,4.907,0,0,1-1.228,3.451,4.055,4.055,0,0,1-3.118,1.341H33.183V10.484H26.66V22.057h9.011A10.15,10.15,0,0,0,43.2,18.974a10.448,10.448,0,0,0,3.012-7.655A11.433,11.433,0,0,0,43.2,3.23Z" transform="translate(-18.631 -0.094)" fill="#1e1f21"/>
    <path id="Path_1404" data-name="Path 1404" d="M120.108,34.189a10.614,10.614,0,0,1-12.806,0,7.14,7.14,0,0,1-2.454-5.633V20.09h6.219v7.8q0,2.429,2.641,2.426t2.629-2.426v-7.8h6.207v8.465A7.085,7.085,0,0,1,120.108,34.189Z" transform="translate(-73.56 -14.351)" fill="#1e1f21"/>
    <path id="Path_1405" data-name="Path 1405" d="M284.7,18.787a11.706,11.706,0,0,1-16.016,0,10.459,10.459,0,0,1-3.266-7.827,10.462,10.462,0,0,1,3.268-7.819,11.706,11.706,0,0,1,16.016,0,10.462,10.462,0,0,1,3.264,7.819,10.459,10.459,0,0,1-3.268,7.825Zm-11.728-4.172a5.249,5.249,0,0,0,5.717,1.156,5.173,5.173,0,1,0-7.191-4.811,4.907,4.907,0,0,0,1.476,3.653Z" transform="translate(-186.342 0.022)" fill="#1e1f21"/>
    <rect id="Rectangle_301" data-name="Rectangle 301" width="6.523" height="3.991" transform="translate(0 6.43)" fill="#1e1f21"/>
    <path id="Path_1406" data-name="Path 1406" d="M199.569,11.68V30.434h-6.213v-10.6l-4.845,8.152h-.557l-4.849-8.152v10.6H176.89V11.68H183.1l5.12,5.853,5.12-5.853Z" transform="translate(-124.133 -8.472)" fill="#1e1f21"/>
    <path id="Path_7212" data-name="Path 7212" d="M5.222-136.755a2.214,2.214,0,0,0,.172.877,2.182,2.182,0,0,0,.476.7,2.262,2.262,0,0,0,.7.472,2.171,2.171,0,0,0,.866.172,2.17,2.17,0,0,0,.866-.172,2.233,2.233,0,0,0,.7-.476,2.2,2.2,0,0,0,.476-.715,2.284,2.284,0,0,0,.172-.891,2.24,2.24,0,0,0-.172-.881,2.172,2.172,0,0,0-.476-.708,2.215,2.215,0,0,0-.7-.468,2.21,2.21,0,0,0-.866-.169,2.171,2.171,0,0,0-.866.172,2.263,2.263,0,0,0-.7.472,2.163,2.163,0,0,0-.476.712A2.3,2.3,0,0,0,5.222-136.755Zm-.422,0a2.579,2.579,0,0,1,.212-1.046,2.637,2.637,0,0,1,.57-.835,2.646,2.646,0,0,1,.838-.55,2.616,2.616,0,0,1,1.021-.2,2.624,2.624,0,0,1,1.018.2,2.666,2.666,0,0,1,.842.55,2.617,2.617,0,0,1,.57.824,2.513,2.513,0,0,1,.212,1.032,2.579,2.579,0,0,1-.212,1.046,2.636,2.636,0,0,1-.57.835,2.635,2.635,0,0,1-.842.55,2.624,2.624,0,0,1-1.018.2,2.616,2.616,0,0,1-1.021-.2,2.677,2.677,0,0,1-.838-.55,2.617,2.617,0,0,1-.57-.824A2.512,2.512,0,0,1,4.8-136.755Zm2.085-.162h.521q.155,0,.306-.01a.824.824,0,0,0,.264-.061.408.408,0,0,0,.183-.148.5.5,0,0,0,.067-.282.464.464,0,0,0-.061-.25.391.391,0,0,0-.158-.144.66.66,0,0,0-.222-.061,2.136,2.136,0,0,0-.245-.014H6.885Zm-.422-1.353H7.576a1.292,1.292,0,0,1,.81.208.8.8,0,0,1,.26.666.729.729,0,0,1-.232.6,1.05,1.05,0,0,1-.57.226l.874,1.339H8.259l-.831-1.3H6.885v1.3H6.463Z" transform="translate(100.917 139.402)" fill="#1e1f21"/>
  </g>
</svg>
