<svg xmlns="http://www.w3.org/2000/svg" width="103" height="40" viewBox="0 0 103 40">
  <g id="hh-dumo" transform="translate(-872.996 -613.209)">
    <rect id="Rectangle_3901" data-name="Rectangle 3901" width="103" height="40" rx="7" transform="translate(872.996 613.209)" fill="#eff0f2"/>
    <g id="hushhomes-b" transform="translate(885.652 622.497)">
      <path id="Path_14381" data-name="Path 14381" d="M20.9,7.68V17.914H.05V7.68H6.913V12.8L10.476,7.68,14.033,12.8V7.68Z" transform="translate(-0.046 -7.138)" fill="#787879"/>
      <path id="Path_14382" data-name="Path 14382" d="M20.854,183.22v8.075h-6.87v-5.117H6.863v5.117H0V183.22Z" transform="translate(0 -170.289)" fill="#787879"/>
      <path id="Path_14383" data-name="Path 14383" d="M359.258,9.08h1.726v9.225h-1.726V14.538H353.1v3.767H351.37V9.08H353.1v3.767h6.162Z" transform="translate(-326.102 -8.439)" fill="#787879"/>
      <path id="Path_14384" data-name="Path 14384" d="M507.526,34.49h1.71v5.663a1.788,1.788,0,0,1-1.8,1.769h-4.086a1.742,1.742,0,0,1-1.279-.519,1.7,1.7,0,0,1-.522-1.25V34.49h1.71v5.663a.079.079,0,0,0,.023.067.082.082,0,0,0,.068.023h4.086a.082.082,0,0,0,.069-.023.079.079,0,0,0,.023-.067Z" transform="translate(-465.48 -32.056)" fill="#787879"/>
      <path id="Path_14385" data-name="Path 14385" d="M633.59,36.3v.32h-1.71V36.3a.079.079,0,0,0-.023-.067.082.082,0,0,0-.068-.023H627.7a.082.082,0,0,0-.069.022.078.078,0,0,0-.023.067v1.025c0,.052.03.077.091.077h4.087a1.811,1.811,0,0,1,1.275.514,1.743,1.743,0,0,1,.527,1.25v1.025a1.7,1.7,0,0,1-.522,1.25,1.748,1.748,0,0,1-1.279.519H627.7a1.788,1.788,0,0,1-1.8-1.769v-.316h1.71v.32a.079.079,0,0,0,.023.067.082.082,0,0,0,.068.023h4.087a.082.082,0,0,0,.069-.023.079.079,0,0,0,.023-.067V39.17c0-.051-.031-.077-.091-.077H627.7a1.788,1.788,0,0,1-1.8-1.768V36.3a1.789,1.789,0,0,1,1.8-1.764h4.087a1.742,1.742,0,0,1,1.279.519A1.7,1.7,0,0,1,633.59,36.3Z" transform="translate(-580.89 -32.098)" fill="#787879"/>
      <path id="Path_14386" data-name="Path 14386" d="M757.417,2.434a1.8,1.8,0,0,1,1.8,1.764V9.863h-1.711V4.2a.078.078,0,0,0-.023-.067.082.082,0,0,0-.069-.022h-4.086a.081.081,0,0,0-.069.022.078.078,0,0,0-.023.067V9.866h-1.71V0h1.71V2.434Z" transform="translate(-697.486)" fill="#787879"/>
      <path id="Path_14387" data-name="Path 14387" d="M359.258,166.79h1.726v9.225h-1.726v-3.767H353.1v3.767H351.37V166.79H353.1v3.767h6.162Z" transform="translate(-326.102 -155.018)" fill="#787879"/>
      <path id="Path_14388" data-name="Path 14388" d="M506.611,192.2H510.7a1.789,1.789,0,0,1,1.8,1.769v3.9a1.788,1.788,0,0,1-1.8,1.768h-4.086a1.788,1.788,0,0,1-1.8-1.768v-3.9A1.789,1.789,0,0,1,506.611,192.2Zm4.086,1.68h-4.086a.082.082,0,0,0-.069.022.078.078,0,0,0-.023.067v3.9a.078.078,0,0,0,.023.067.082.082,0,0,0,.069.022H510.7a.082.082,0,0,0,.069-.022.079.079,0,0,0,.023-.067v-3.9a.079.079,0,0,0-.024-.067A.082.082,0,0,0,510.7,193.88Z" transform="translate(-468.508 -178.635)" fill="#787879"/>
      <path id="Path_14389" data-name="Path 14389" d="M640.385,192.2a1.791,1.791,0,0,1,1.8,1.769v5.663h-1.7v-5.663c0-.06-.034-.09-.1-.09H637.54c-.052,0-.078.03-.078.09v5.663h-1.726v-5.663c0-.06-.026-.09-.078-.09H632.8a.081.081,0,0,0-.068.022.079.079,0,0,0-.023.067v5.663H631V192.2Z" transform="translate(-585.624 -178.635)" fill="#787879"/>
      <path id="Path_14390" data-name="Path 14390" d="M806.835,192.2a1.789,1.789,0,0,1,1.8,1.769v2.793h-5.98v1.1a.078.078,0,0,0,.023.067.081.081,0,0,0,.068.022h5.888v1.678h-5.885a1.788,1.788,0,0,1-1.8-1.768v-3.9a1.789,1.789,0,0,1,1.8-1.769Zm-4.177,2.87h4.269v-1.1a.079.079,0,0,0-.023-.067.081.081,0,0,0-.068-.022h-4.083a.082.082,0,0,0-.069.022.078.078,0,0,0-.023.067Z" transform="translate(-743.352 -178.635)" fill="#787879"/>
      <path id="Path_14391" data-name="Path 14391" d="M930.1,193.969v.32h-1.71v-.32a.078.078,0,0,0-.023-.067.081.081,0,0,0-.069-.022h-4.087a.082.082,0,0,0-.069.022.078.078,0,0,0-.023.067v1.025c0,.052.031.077.091.077h4.087a1.811,1.811,0,0,1,1.274.517,1.744,1.744,0,0,1,.524,1.251v1.026a1.744,1.744,0,0,1-.524,1.251,1.811,1.811,0,0,1-1.274.517h-4.087a1.788,1.788,0,0,1-1.8-1.768v-.32h1.71v.32a.078.078,0,0,0,.023.067.082.082,0,0,0,.069.022H928.3a.081.081,0,0,0,.068-.022.078.078,0,0,0,.023-.067v-1.026c0-.051-.031-.076-.091-.076h-4.09a1.789,1.789,0,0,1-1.8-1.769v-1.025a1.789,1.789,0,0,1,1.8-1.769h4.087a1.815,1.815,0,0,1,1.273.518,1.748,1.748,0,0,1,.525,1.25Z" transform="translate(-856.078 -178.635)" fill="#787879"/>
      <path id="Path_14392" data-name="Path 14392" d="M1045.68,192h1.1v.121h-.488v.958h-.124v-.962h-.489Z" transform="translate(-970.483 -178.449)" fill="#787879"/>
      <path id="Path_14393" data-name="Path 14393" d="M1063.188,192.484l.457-.534h.17v1.08h-.124v-.941l-.5.586-.5-.586v.941h-.124v-1.076h.169Z" transform="translate(-986.149 -178.402)" fill="#787879"/>
    </g>
  </g>
</svg>
