<svg id="ic-ava" xmlns="http://www.w3.org/2000/svg" xmlns:xlink="http://www.w3.org/1999/xlink" width="64" height="64" viewBox="0 0 64 64">
  <defs>
    <clipPath id="clip-path">
      <path id="Path_14520" data-name="Path 14520" d="M19.2,0H44.8A19.2,19.2,0,0,1,64,19.2V44.8A19.2,19.2,0,0,1,44.8,64H19.2A19.2,19.2,0,0,1,0,44.8V19.2A19.2,19.2,0,0,1,19.2,0Z" fill="#0039d6"/>
    </clipPath>
  </defs>
  <path id="Path_14519" data-name="Path 14519" d="M19.2,0H44.8A19.2,19.2,0,0,1,64,19.2V44.8A19.2,19.2,0,0,1,44.8,64H19.2A19.2,19.2,0,0,1,0,44.8V19.2A19.2,19.2,0,0,1,19.2,0Z" fill="#1e1f21"/>
  <g id="Mask_Group_5" data-name="Mask Group 5" clip-path="url(#clip-path)">
    <path id="Path_14516" data-name="Path 14516" d="M56.614,21.995a1.648,1.648,0,0,1,.315-1.121.807.807,0,0,1,1.331,0,1.648,1.648,0,0,1,.315,1.121,8.577,8.577,0,0,1-.7,2.8,23.975,23.975,0,0,1-2,3.923,36.515,36.515,0,0,1-3.153,4.309,25.532,25.532,0,0,1-4.239,3.994,22.1,22.1,0,0,1-5.255,2.908,16.617,16.617,0,0,1-6.1,1.121,16.438,16.438,0,0,1-8.057-1.822,14.892,14.892,0,0,1-5.36-5.009,22.533,22.533,0,0,1-3.013-7.5,43.259,43.259,0,0,1-.946-9.283,66.17,66.17,0,0,1,.7-9.423,91.627,91.627,0,0,1,1.962-9.774H11.283q-3.713,5.675-7.322,11A101.769,101.769,0,0,1-3.22,18.7a39.973,39.973,0,0,1-7.111,6.621,12.2,12.2,0,0,1-7.041,2.487,10.988,10.988,0,0,1-5.29-1.226,11.075,11.075,0,0,1-3.818-3.4,15.624,15.624,0,0,1-2.312-5.044,23.717,23.717,0,0,1-.771-6.165,31.828,31.828,0,0,1,.946-7.532,33.83,33.83,0,0,1,2.873-7.6,36.565,36.565,0,0,1,4.834-7.076,31.083,31.083,0,0,1,6.866-5.885,34.99,34.99,0,0,1,8.933-3.994,38.688,38.688,0,0,1,11-1.471.865.865,0,0,1,.771.455,1.78,1.78,0,0,1,.28.946,1,1,0,0,1-.175.6.682.682,0,0,1-.6.245A34.723,34.723,0,0,0-4.1-17.906a31.937,31.937,0,0,0-8.3,3.853,29.892,29.892,0,0,0-6.341,5.6,34.427,34.427,0,0,0-4.484,6.726A33.04,33.04,0,0,0-25.885,5.46a29.694,29.694,0,0,0-.876,6.936,21.347,21.347,0,0,0,.6,5.185,13.235,13.235,0,0,0,1.787,4.169,8.856,8.856,0,0,0,2.943,2.8,7.953,7.953,0,0,0,4.064,1.016,8.9,8.9,0,0,0,5.43-2.242A38.184,38.184,0,0,0-6.057,17.3Q-3.009,13.517.284,8.578T7.08-1.756H2.035q-.841,0-.841-.911A1.909,1.909,0,0,1,1.51-3.718q.315-.49.666-.49H8.691q2.732-4.2,5.57-8.372t5.815-7.952q2.978-3.783,6.06-7.041a50.124,50.124,0,0,1,6.306-5.675,30.158,30.158,0,0,1,6.516-3.783A17.4,17.4,0,0,1,45.684-38.4a1.38,1.38,0,0,1,1.156.49,1.67,1.67,0,0,1,.385,1.051,1.345,1.345,0,0,1-.315.876,1.151,1.151,0,0,1-.946.385q-1.822,0-3.888,2.557a36.84,36.84,0,0,0-4.169,6.831,89.511,89.511,0,0,0-4.064,9.879q-1.962,5.6-3.468,11.7T27.958,7.7a81.187,81.187,0,0,0-.911,11.7,46.932,46.932,0,0,0,.6,7.707,21.769,21.769,0,0,0,1.892,6.165,10.648,10.648,0,0,0,3.4,4.064,8.694,8.694,0,0,0,5.115,1.471,14.359,14.359,0,0,0,5.6-1.086,18.272,18.272,0,0,0,4.624-2.767,23.556,23.556,0,0,0,3.608-3.713,32.615,32.615,0,0,0,2.627-3.888,21.783,21.783,0,0,0,1.576-3.328A7.428,7.428,0,0,0,56.614,21.995Zm-33.56-26.2q1.121-4.2,2.627-8.232T28.9-20.113a73.067,73.067,0,0,1,3.608-6.761,42.165,42.165,0,0,1,3.923-5.5,39.158,39.158,0,0,0-6.1,5.044A78.073,78.073,0,0,0,24.385-20.6q-2.943,3.713-5.815,7.917T12.895-4.209H23.054Z" transform="translate(17.495 38.399)" fill="#fff"/>
  </g>
</svg>
