<svg id="ic-pali" xmlns="http://www.w3.org/2000/svg" xmlns:xlink="http://www.w3.org/1999/xlink" width="64" height="64" viewBox="0 0 64 64">
  <defs>
    <clipPath id="clip-path">
      <path id="Path_14521" data-name="Path 14521" d="M19.2,0H44.8A19.2,19.2,0,0,1,64,19.2V44.8A19.2,19.2,0,0,1,44.8,64H19.2A19.2,19.2,0,0,1,0,44.8V19.2A19.2,19.2,0,0,1,19.2,0Z" fill="#1e1f21"/>
    </clipPath>
  </defs>
  <path id="Path_14517" data-name="Path 14517" d="M19.2,0H44.8A19.2,19.2,0,0,1,64,19.2V44.8A19.2,19.2,0,0,1,44.8,64H19.2A19.2,19.2,0,0,1,0,44.8V19.2A19.2,19.2,0,0,1,19.2,0Z" fill="#1e1f21"/>
  <g id="Mask_Group_6" data-name="Mask Group 6" clip-path="url(#clip-path)">
    <g id="Group_11432" data-name="Group 11432" transform="translate(13.284 19.042)">
      <path id="Path_9185" data-name="Path 9185" d="M290.134,84.342H252.7V38.6h37.434Zm-34.68-2.754H287.38V41.354H255.454Z" transform="translate(-252.7 -29.626)" fill="#fff"/>
      <path id="Path_9186" data-name="Path 9186" d="M283.368,92.268a12.085,12.085,0,0,1-8.168-3.221l1.26-1.354a10.141,10.141,0,0,0,13.909-.093l1.26,1.307a12.049,12.049,0,0,1-7.841,3.314Z" transform="translate(-264.698 -55.755)" fill="#fff"/>
      <path id="Path_9187" data-name="Path 9187" d="M290.657,27.088H288.7a9.931,9.931,0,0,0-1.867-2.894,8.278,8.278,0,0,0-11.622-1.074,13.754,13.754,0,0,0-1.167,1.167,10.531,10.531,0,0,0-1.727,2.754H270.4a12.948,12.948,0,0,1,2.287-3.967,10.128,10.128,0,0,1,14.189-1.447,11.057,11.057,0,0,1,1.307,1.26A12.04,12.04,0,0,1,290.657,27.088Z" transform="translate(-262.138 -19.374)" fill="#fff"/>
    </g>
  </g>
</svg>
