<svg xmlns="http://www.w3.org/2000/svg" width="118" height="40" viewBox="0 0 118 40">
  <g id="landpay-dumo" transform="translate(-300.004 -612.756)">
    <rect id="Rectangle_3897" data-name="Rectangle 3897" width="118" height="40" rx="7" transform="translate(300.004 612.756)" fill="#eff0f2"/>
    <g id="landpay-b" transform="translate(315.178 622.497)">
      <g id="Group_6609" data-name="Group 6609" transform="translate(25.42 7.349)">
        <path id="Path_13128" data-name="Path 13128" d="M297.25,264.38h2.33v8.007h4.9v2.119h-7.23Z" transform="translate(-297.25 -264.38)" fill="#7d8184"/>
        <path id="Path_13129" data-name="Path 13129" d="M362.381,282.2v7.429l-2.138.045.02-.764a2.723,2.723,0,0,1-.89.7,2.678,2.678,0,0,1-1.187.248,3.614,3.614,0,0,1-1.307-.248,3.412,3.412,0,0,1-1.159-.749,3.776,3.776,0,0,1-.833-1.243,4.3,4.3,0,0,1-.318-1.7,4.186,4.186,0,0,1,.325-1.709,3.777,3.777,0,0,1,.855-1.236,3.61,3.61,0,0,1,1.18-.756,3.549,3.549,0,0,1,1.3-.255,2.775,2.775,0,0,1,1.292.262,2.115,2.115,0,0,1,.742.586l-.085-.607h2.2Zm-3.242,2.005a1.638,1.638,0,0,0-.642-.127,1.585,1.585,0,0,0-.635.127,1.642,1.642,0,0,0-.529.367,1.729,1.729,0,0,0-.367.579,2.232,2.232,0,0,0,0,1.525,1.669,1.669,0,0,0,.367.572,1.753,1.753,0,0,0,.537.367,1.538,1.538,0,0,0,.628.134,1.569,1.569,0,0,0,.642-.134,1.77,1.77,0,0,0,.537-.367,1.656,1.656,0,0,0,.367-.572,2.232,2.232,0,0,0,0-1.525,1.756,1.756,0,0,0-.367-.579A1.616,1.616,0,0,0,359.139,284.2Z" transform="translate(-346.549 -279.5)" fill="#7d8184"/>
        <path id="Path_13130" data-name="Path 13130" d="M418.291,282.957a2.922,2.922,0,0,1,.939-.721,2.986,2.986,0,0,1,1.363-.3,2.7,2.7,0,0,1,2.019.763,2.815,2.815,0,0,1,.749,2.063v4.844H421.1v-4.237a1.443,1.443,0,0,0-.318-.967,1.18,1.18,0,0,0-.953-.374,1.308,1.308,0,0,0-1.152.565,2.409,2.409,0,0,0-.389,1.4v3.616h-2.26v-7.429h2.414Z" transform="translate(-399.409 -279.483)" fill="#7d8184"/>
        <path id="Path_13131" data-name="Path 13131" d="M481.832,274.505l-2.154.05.036-.77a2.717,2.717,0,0,1-2.049.946,3.644,3.644,0,0,1-1.321-.248,3.249,3.249,0,0,1-1.143-.749,3.821,3.821,0,0,1-.812-1.243,4.373,4.373,0,0,1-.311-1.7,4.284,4.284,0,0,1,.318-1.709,3.943,3.943,0,0,1,.819-1.236,3.41,3.41,0,0,1,2.393-1.01,2.736,2.736,0,0,1,1.187.225,2.543,2.543,0,0,1,.777.565V264.38h2.26Zm-3.213-5.422a1.64,1.64,0,0,0-.642-.127,1.586,1.586,0,0,0-.635.127,1.557,1.557,0,0,0-.522.367,1.7,1.7,0,0,0-.353.579,2.181,2.181,0,0,0-.127.763,2.143,2.143,0,0,0,.127.763,1.662,1.662,0,0,0,.353.572,1.685,1.685,0,0,0,.529.367,1.537,1.537,0,0,0,.628.134,1.568,1.568,0,0,0,.642-.134,1.652,1.652,0,0,0,.529-.367,1.608,1.608,0,0,0,.353-.572,2.347,2.347,0,0,0,0-1.525,1.75,1.75,0,0,0-.353-.579A1.505,1.505,0,0,0,478.619,269.083Z" transform="translate(-449.336 -264.38)" fill="#7d8184"/>
        <path id="Path_13132" data-name="Path 13132" d="M535.07,282.189h2.3l-.183.721a2.352,2.352,0,0,1,.9-.684,3.106,3.106,0,0,1,1.335-.276,3.31,3.31,0,0,1,1.278.255,3.113,3.113,0,0,1,1.087.756,3.74,3.74,0,0,1,.756,1.236,4.732,4.732,0,0,1,.283,1.709,4.64,4.64,0,0,1-.29,1.709,3.641,3.641,0,0,1-.784,1.236,3.127,3.127,0,0,1-1.173.749,4.123,4.123,0,0,1-1.426.248,3.208,3.208,0,0,1-.494-.042,3.757,3.757,0,0,1-.522-.12,2.328,2.328,0,0,1-.466-.2,1.063,1.063,0,0,1-.339-.29V292.3h-2.26V282.189Zm3.213,5.415a1.574,1.574,0,0,0,.642.134,1.522,1.522,0,0,0,.635-.134,1.687,1.687,0,0,0,.522-.367,1.708,1.708,0,0,0,.36-.572,2.232,2.232,0,0,0,0-1.525,1.839,1.839,0,0,0-.36-.579,1.506,1.506,0,0,0-.529-.367,1.6,1.6,0,0,0-.628-.127,1.634,1.634,0,0,0-.642.127,1.53,1.53,0,0,0-.529.367,1.7,1.7,0,0,0-.353.579,2.349,2.349,0,0,0,0,1.525,1.663,1.663,0,0,0,.353.572A1.685,1.685,0,0,0,538.283,287.6Z" transform="translate(-501.792 -279.491)" fill="#7d8184"/>
        <path id="Path_13133" data-name="Path 13133" d="M603.941,282.189v7.429h-2.1l-.015-.721a2.722,2.722,0,0,1-.89.7,2.679,2.679,0,0,1-1.187.248,3.614,3.614,0,0,1-1.307-.248,3.413,3.413,0,0,1-1.159-.749,3.775,3.775,0,0,1-.833-1.243,4.293,4.293,0,0,1-.318-1.7,4.187,4.187,0,0,1,.325-1.709,3.777,3.777,0,0,1,.855-1.236,3.613,3.613,0,0,1,1.18-.756,3.551,3.551,0,0,1,1.3-.255,2.774,2.774,0,0,1,1.292.262,2.115,2.115,0,0,1,.742.586l-.192-.607h2.31Zm-3.242,2.005a1.638,1.638,0,0,0-.642-.127,1.585,1.585,0,0,0-.635.127,1.645,1.645,0,0,0-.529.367,1.732,1.732,0,0,0-.367.579,2.235,2.235,0,0,0,0,1.525,1.674,1.674,0,0,0,.367.572,1.754,1.754,0,0,0,.537.367,1.537,1.537,0,0,0,.628.134,1.568,1.568,0,0,0,.642-.134,1.754,1.754,0,0,0,.537-.367,1.656,1.656,0,0,0,.367-.572,2.232,2.232,0,0,0,0-1.525,1.757,1.757,0,0,0-.367-.579A1.583,1.583,0,0,0,600.7,284.194Z" transform="translate(-554.307 -279.491)" fill="#7d8184"/>
        <path id="Path_13134" data-name="Path 13134" d="M660.65,290.721l-3.05-7.061h2.584l1.625,3.968,1.5-3.968h2.529l-3.248,8.192a4.364,4.364,0,0,1-.551,1.038,3.189,3.189,0,0,1-.656.67,2.124,2.124,0,0,1-.728.353,3.149,3.149,0,0,1-.791.1,4.386,4.386,0,0,1-.911-.085,3.778,3.778,0,0,1-.7-.211l.593-1.935a1.3,1.3,0,0,0,.367.127,2.249,2.249,0,0,0,.438.042.8.8,0,0,0,.445-.134,1.1,1.1,0,0,0,.359-.558Z" transform="translate(-607.176 -280.962)" fill="#7d8184"/>
        <g id="Group_6608" data-name="Group 6608" transform="translate(59.04 1.178)">
          <path id="Path_13135" data-name="Path 13135" d="M719.17,272.8h1.269v.262h-.488v1.315h-.292v-1.315h-.488Z" transform="translate(-719.17 -272.8)" fill="#7d8184"/>
          <path id="Path_13136" data-name="Path 13136" d="M731.143,272.8h.341v1.577h-.276v-1.041l-.383,1.041h-.306l-.383-1.041v1.041h-.276V272.8h.339l.47,1.293Z" transform="translate(-728.364 -272.8)" fill="#7d8184"/>
        </g>
      </g>
      <g id="Group_6611" data-name="Group 6611" transform="translate(0 0)">
        <path id="Path_13137" data-name="Path 13137" d="M136.254,217.617h.055l-2.1-4.751a2.163,2.163,0,0,0-2.88-1.081l-1.048.48-1.713-1.272a4.189,4.189,0,0,0-4.97,0l-6.361,4.739A4.051,4.051,0,0,0,115.59,219v8.1a4.112,4.112,0,0,0,4.135,4.089h12.6a4.127,4.127,0,0,0,4.012-3.094h-7.317a3.721,3.721,0,1,1,0-7.442h7.44v-1.755A4.074,4.074,0,0,0,136.254,217.617Z" transform="translate(-115.59 -210.178)" fill="#7d8184"/>
        <path id="Path_13138" data-name="Path 13138" d="M190.17,294.317a3,3,0,0,0,3,3H200.6l.007-5.993h-7.44A3,3,0,0,0,190.17,294.317Zm4.576,0a1.578,1.578,0,1,1-1.578-1.578A1.578,1.578,0,0,1,194.746,294.317Z" transform="translate(-179.734 -280.141)" fill="#7d8184"/>
      </g>
    </g>
  </g>
</svg>
