<svg id="techpoint" xmlns="http://www.w3.org/2000/svg" width="153.064" height="33.781" viewBox="0 0 153.064 33.781">
  <g id="Group_12189" data-name="Group 12189" transform="translate(23.993 1.188)">
    <g id="Group_12188" data-name="Group 12188">
      <path id="Path_889" data-name="Path 889" d="M6.328,420.948H0v-3.02H16.2v3.02H9.867V437H6.328Zm23.013,9.9H17.863c.4,2.1,2.186,3.452,4.718,3.452a5.178,5.178,0,0,0,3.941-1.553l1.841,2.1a7.417,7.417,0,0,1-5.868,2.359c-4.89,0-8.054-3.135-8.054-7.479a7.263,7.263,0,0,1,7.594-7.393,7.09,7.09,0,0,1,7.364,7.508l-.058,1.036ZM17.835,428.57h8.285a3.94,3.94,0,0,0-4.113-3.538,4.027,4.027,0,0,0-4.142,3.538Zm12.254,1.179c0-4.372,3.251-7.422,7.882-7.422,2.819,0,5.092,1.151,6.213,3.366l-2.646,1.525a4.086,4.086,0,0,0-3.6-2.014,4.546,4.546,0,0,0,0,9.09,4.086,4.086,0,0,0,3.6-2.014l2.646,1.525a6.7,6.7,0,0,1-6.213,3.394C33.368,437.2,30.089,434.122,30.089,429.75Zm29.859-1.064v8.342H56.553v-7.882c0-2.589-1.266-3.855-3.452-3.855-2.445,0-4.085,1.467-4.085,4.372v7.364H45.622V416.805h3.394v7.364a6.5,6.5,0,0,1,4.861-1.87C57.359,422.3,59.948,424.313,59.948,428.686Zm18.439,1.064a7.1,7.1,0,0,1-7.393,7.479,6,6,0,0,1-4.66-1.956v7.048H62.939V422.472h3.222v1.9a6.062,6.062,0,0,1,4.833-2.071,7.105,7.105,0,0,1,7.393,7.479Zm-3.452,0a4.321,4.321,0,1,0-4.315,4.545A4.232,4.232,0,0,0,74.935,429.75Zm4.142,0c0-4.372,3.251-7.422,7.709-7.422,4.545,0,7.767,3.078,7.767,7.422,0,4.372-3.222,7.479-7.767,7.479A7.33,7.33,0,0,1,79.077,429.75Zm12.082,0a4.334,4.334,0,1,1-.029,0Zm4.861-11.736a2.181,2.181,0,0,1,4.344-.058,2.1,2.1,0,0,1-2.186,2.129,2.06,2.06,0,0,1-2.157-2.042Zm.46,4.459h3.394V437H96.48Zm20.884,6.213v8.342h-3.452v-7.882c0-2.589-1.266-3.855-3.452-3.855-2.416,0-4.056,1.467-4.056,4.372v7.364h-3.423V422.472H106.2v1.9a6.328,6.328,0,0,1,5.005-2.042c3.509-.029,6.1,1.956,6.1,6.357Zm11.708,7.565a5.379,5.379,0,0,1-3.279.978c-3.164,0-5.005-1.726-5.005-4.919v-7.019h-2.416v-2.675h2.416v-3.337h3.394v3.337h3.912v2.7h-3.912v6.933c0,1.438.719,2.186,2.014,2.186a3.141,3.141,0,0,0,1.927-.6Z" transform="translate(0 -416)" fill="#787879"/>
    </g>
    <path id="Path_890" data-name="Path 890" d="M341.868,505.557v1.553H340.2v-1.553Zm6.386,1.41-.288.144-.288.086-.173.029h-.115a1.007,1.007,0,0,1-.719-.288l-.23-.288a1.49,1.49,0,0,1-.173-.374,3.163,3.163,0,0,1-1.007.777l-.46.144a2.416,2.416,0,0,1-1.294-.086,2.823,2.823,0,0,1-.633-.374,1.613,1.613,0,0,1-.4-.575,1.7,1.7,0,0,1-.144-.777,1.048,1.048,0,0,1,.144-.6,1.439,1.439,0,0,1,.432-.489l.6-.316.69-.259.719-.2.575-.23a1.725,1.725,0,0,0,.431-.288.4.4,0,0,0,.173-.316.575.575,0,0,0-.345-.575,1,1,0,0,0-.345-.086l-.374-.029-.374.029-.345.173a.783.783,0,0,0-.23.288.966.966,0,0,0-.144.4H342.5a2.013,2.013,0,0,1,.259-.92,2.243,2.243,0,0,1,1.381-1.064,3.011,3.011,0,0,1,.863-.144,5.352,5.352,0,0,1,.978.115,2.314,2.314,0,0,1,.805.374,2.072,2.072,0,0,1,.547.575,1.965,1.965,0,0,1,.2.92v2.992a.383.383,0,0,0,.086.23c.058.086.115.086.23.086h.115a.536.536,0,0,0,.288-.144v1.064Zm-2.186-2.819a.919.919,0,0,1-.374.144l-.46.144-.547.144-.489.2a1.035,1.035,0,0,0-.345.23.5.5,0,0,0-.115.345.431.431,0,0,0,.058.288.487.487,0,0,0,.173.23l.23.144h.23a1.665,1.665,0,0,0,.863-.259,2.61,2.61,0,0,0,.805-.863v-.748Zm3.164-3.222v-1.237a.985.985,0,0,1,.115-.518,1.381,1.381,0,0,1,.863-.719,2.012,2.012,0,0,1,.863-.086l.288.029a1.1,1.1,0,0,1,.374.115l.489.173v1.151l-.489-.173-.316-.086-.2-.029h-.086l-.173.029-.144.086a.158.158,0,0,0-.086.144c-.058.029-.058.115-.058.173v.892h1.151v1.208h-1.151v5.005h-1.438v-5.005h-.978V500.9Zm2.992,0h1.064l.23.748a2.216,2.216,0,0,1,.575-.662,1.119,1.119,0,0,1,.662-.2l.374.029.575.23v1.266l-.4-.144-.259-.058h-.23a.881.881,0,0,0-.489.086l-.374.288a1.524,1.524,0,0,0-.288.949v3.711H352.2v-6.242Zm5.178-2.3v1.438h-1.438v-1.438Zm0,2.3v6.185h-1.438v-6.185Zm4.746,2.215a2.14,2.14,0,0,0-.431-.892.976.976,0,0,0-.748-.288,1.037,1.037,0,0,0-.575.173,2.167,2.167,0,0,0-.46.431,2.675,2.675,0,0,0-.374,1.352,3.4,3.4,0,0,0,.115.805,2.1,2.1,0,0,0,.719,1.151.879.879,0,0,0,.575.2.812.812,0,0,0,.432-.115,1.152,1.152,0,0,0,.345-.288,1.459,1.459,0,0,0,.259-.46l.144-.547h1.5a4.053,4.053,0,0,1-.288,1.093,2.417,2.417,0,0,1-1.381,1.323,2.992,2.992,0,0,1-1.927.029,2.387,2.387,0,0,1-1.237-.92,3,3,0,0,1-.374-.662,3.853,3.853,0,0,1-.288-1.582,3.65,3.65,0,0,1,.2-1.266,3.828,3.828,0,0,1,.575-1.007,2.674,2.674,0,0,1,.892-.633,2.992,2.992,0,0,1,2.215-.057,2.725,2.725,0,0,1,.777.489,2.95,2.95,0,0,1,.547.748,3.131,3.131,0,0,1,.288.92h-1.5ZM370,506.967l-.316.144-.259.086-.173.029h-.144a1.007,1.007,0,0,1-.719-.288l-.23-.288-.173-.374a3.163,3.163,0,0,1-.978.777l-.489.144a2.416,2.416,0,0,1-1.266-.086,1.679,1.679,0,0,1-.633-.374,1.61,1.61,0,0,1-.431-.575,2.194,2.194,0,0,1-.144-.777,1.063,1.063,0,0,1,.173-.6,1.44,1.44,0,0,1,.432-.489l.575-.316a3.614,3.614,0,0,1,.719-.259l.69-.2.575-.23a1.726,1.726,0,0,0,.46-.288.5.5,0,0,0,.173-.316.575.575,0,0,0-.374-.575,1,1,0,0,0-.345-.086l-.374-.029-.374.029a.685.685,0,0,0-.316.173.629.629,0,0,0-.259.288.936.936,0,0,0-.115.4h-1.467a2.013,2.013,0,0,1,.259-.92,2.244,2.244,0,0,1,1.381-1.064,3.044,3.044,0,0,1,.892-.144,5.352,5.352,0,0,1,.978.115,2.171,2.171,0,0,1,.777.374,2.726,2.726,0,0,1,.575.575,2.386,2.386,0,0,1,.173.92v2.992a.383.383,0,0,0,.086.23.239.239,0,0,0,.23.086h.144A.536.536,0,0,0,370,505.9v1.064Zm-2.215-2.819-.345.144-.489.144-.518.144-.489.2a.8.8,0,0,0-.345.23.739.739,0,0,0-.144.345.431.431,0,0,0,.058.288l.173.23.23.144h.259a1.665,1.665,0,0,0,.863-.259,2.552,2.552,0,0,0,.777-.863v-.748Z" transform="translate(-242.339 -474.663)" fill="#787879"/>
  </g>
  <g id="Group_12190" data-name="Group 12190" transform="translate(0 0)">
    <path id="Path_891" data-name="Path 891" d="M84.634,78.291a10.455,10.455,0,1,1-14.846-9.43c.4-.2.4-.2.521.254.365,1.336.717,2.685,1.1,4.014.065.222.046.332-.176.456A5.5,5.5,0,0,0,73.314,83.72a5.582,5.582,0,0,0,6.393-4.907,5.526,5.526,0,0,0-4.523-5.97,6.716,6.716,0,0,0-.951-.091c-.13,0-.2-.033-.222-.176l-1.193-4.4c-.078-.267.143-.2.241-.2a8.929,8.929,0,0,1,2.255,0,10.414,10.414,0,0,1,9.313,10.31Z" transform="translate(-63.694 -63.476)" fill="#787879"/>
    <path id="Path_892" data-name="Path 892" d="M137.354,14.5a3.415,3.415,0,0,1,1.668-2.7.309.309,0,0,0,.156-.4c-.587-2.157-1.173-4.314-1.747-6.491a.534.534,0,0,0-.235-.319l-1.147-.619a.482.482,0,0,1-.267-.326c-.215-.808-.417-1.584-.639-2.372-.065-.189,0-.235.176-.319a.628.628,0,0,1,.684.143c.411.365.854.7,1.284,1.049.241.2.385.143.5-.13l.652-1.694a.92.92,0,0,1,.632-.352c.078.02.078.1.1.163l.665,2.476a.456.456,0,0,1-.065.345c-.235.385-.456.762-.7,1.127a.443.443,0,0,0-.046.4l1.76,6.511a.259.259,0,0,0,.3.235,3.58,3.58,0,0,1,.385,7.13,3.643,3.643,0,0,1-4.112-3.858Z" transform="translate(-130.465 0.032)" fill="#787879"/>
  </g>
</svg>
