<svg id="vanguard" xmlns="http://www.w3.org/2000/svg" width="159.358" height="33.781" viewBox="0 0 159.358 33.781">
  <path id="Path_908" data-name="Path 908" d="M60.09,24.733v.209H52.346V21.927l.055-.009h-.058s0-7.917,0-7.917c-.016-.462.154-2.524-2.192-2.5,0,.006-2.408.04-2.353,2.942v0l-.008,7.834c.069,2.411,1.509,2.461,1.514,2.461v.2H37.017c-.172.02-5.616.2-5.835-4.872v-2.74a10.969,10.969,0,0,0-2.831,1,2.1,2.1,0,0,0-.588,2.973s.847,1.485,3.584.936l-1.335,2.714H27.375s-6.155.126-6.876-4.4c0-.031-.554-3.548,3.649-4.973a29.264,29.264,0,0,1,4.172-.989c.03,0,2.337-.33,2.552-1.58a1.237,1.237,0,0,0-.077-.754c.038.1-1.048-2.753-7.688.13.028.031,1.366-4.167,1.366-4.167s6.254-1.838,10.617.841c-.029.029,2.28,1.256,2.249,5.1l.069,5.322a2.766,2.766,0,0,0,2.6,2.875c0,.025.926.018,1.457.015V10.757c0-.065.142-2.484-1.472-2.592V7.942l7.8-.3,0,1.975a7.122,7.122,0,0,1,4.693-2s6.074-.213,6.064,5.738c0,0,.01,8.564.01,8.564-.048,2.778,1.525,2.818,1.525,2.818ZM.018.336V.08H8.486l6.077,17.745L19.058,3.588A2.541,2.541,0,0,0,17.518.244V.04H24.3L15.73,25.132l-3.567-1.375S9.274,22.9,7.736,18.57L2.16,3.173S1.457.685.018.336Zm150.93,21.583c-.04,2.976,1.543,2.818,1.545,2.818v.21l-7.967-.005v0l0,0v-10.7l0-.221c0,.1,0-2.734-2.485-2.764-.03.03-2.917-.277-2.917,5.117-.029.029-.029,6.309,4.851,5.5,0,.025-1.711,3.059-1.711,3.059a7.116,7.116,0,0,1-7.236-2.14,8.775,8.775,0,0,1-2.5-6.421c.029.029-.083-4,2.5-6.561a7.425,7.425,0,0,1,9.5-.951V3.2c0-.062.14-2.483-1.475-2.591V.389l7.9-.306.005,21.836ZM127.238,9.883a4.352,4.352,0,0,1,5.051-2.247v4.258c-5.266-.873-5.046,3.092-5.051,3.068h0l0,6.949c-.034,2.947,1.477,2.831,1.551,2.827v.2h-7.877v0H116.35c-.165.02-5.612.2-5.826-4.872v-2.74a10.975,10.975,0,0,0-2.837,1A2.1,2.1,0,0,0,107.1,21.3s.843,1.485,3.581.936L109.35,24.95h-2.642s-6.15.123-6.871-4.4c0-.031-.554-3.55,3.649-4.969a28.939,28.939,0,0,1,4.17-.992c.031,0,2.337-.33,2.552-1.579a1.213,1.213,0,0,0-.075-.755c.033.1-1.048-2.753-7.69.13.038.031,1.371-4.167,1.371-4.167s6.256-1.838,10.62.841c-.033.033,2.274,1.258,2.246,5.1l.068,5.326a2.755,2.755,0,0,0,2.6,2.873c0,.025,1.044.02,1.553.018V21l0-10.247c0-.065.138-2.488-1.473-2.595V7.946l7.8-.306V9.883Z" transform="translate(-0.018 -0.04)" fill="#787879" fill-rule="evenodd"/>
  <path id="Path_909" data-name="Path 909" d="M56.843,17.033c2.387,0,2.11-3.318,2.11-3.368-.05-2.849-2.105-2.764-2.105-2.764-2.264,0-2.173,2.844-2.2,2.815-.248,3.154,2.025,3.357,2.194,3.318ZM74.67,7.6v11.09s-.055,2.4,2.137,2.382c-.01-.039,2.318.351,2.4-2.957,0,0,0,.009.008.009l0-2.016V10.744c0-.065.14-2.484-1.475-2.592V7.93l7.8-.3V21.9c0,.06-.143,2.746,1.548,2.824v.2H79.21l0-2.026a7.113,7.113,0,0,1-4.735,2.048s-6.183.216-6.17-5.74c-.023-.045-.01-6.343,0-8.493H63.547a3.539,3.539,0,0,1,.415.462,4.8,4.8,0,0,1,.052,6.289c-1.712,2.4-7.241,3.07-7.241,3.07l-.344.039c-1.872.065-1.277,1.015-1.271,1.02.271.633,1.619.533,1.619.533h3.166c6.41-.021,7.093,4.177,7.119,4.177,1.053,5.89-4.876,7.646-10.8,7.492-5.874.038-8.05-2.519-8.028-2.5-1.491-1.728-.7-4.14,1.938-4.871a10.035,10.035,0,0,1,4.26,0A1.7,1.7,0,0,0,53,28.473c.588,2.11,3.589,2.131,3.77,2.134,3.833-.2,3.942-2.064,3.942-2.976a2.584,2.584,0,0,0-1-1.928c-1.389-1.02-4.018-.7-5.847-.778a3.728,3.728,0,0,1-3.352-3.293c-.12-.745.019-1.044.447-1.319a9.719,9.719,0,0,1,2.333-.652l.038-.008a.254.254,0,0,0-.055-.008,7.876,7.876,0,0,1-3.539-2.558A5.5,5.5,0,0,1,50.2,9.92,9.412,9.412,0,0,1,56.587,7.6H74.672Zm66.573-4.388a2.717,2.717,0,1,0,2.719-2.7,2.711,2.711,0,0,0-2.719,2.7Zm-.435,0a3.154,3.154,0,0,1,6.308,0,3.154,3.154,0,0,1-6.308,0Z" transform="translate(12.242 -0.028)" fill="#787879" fill-rule="evenodd"/>
  <path id="Path_910" data-name="Path 910" d="M123.726,3.145V4.808h-.52V1.124h1.329c.625,0,1.266.2,1.266.924a.878.878,0,0,1-.695.888v.011c.444.1.5.342.561.754a5.318,5.318,0,0,0,.234,1.107h-.554c-.045-.218-.106-.458-.132-.679a1.5,1.5,0,0,0-.21-.818c-.148-.166-.356-.151-.561-.166h-.718Zm-.013-.438h.851c.571-.026.7-.283.7-.573s-.128-.549-.7-.573h-.852V2.707Z" transform="translate(31.796 0.24)" fill="#787879" fill-rule="evenodd"/>
</svg>
