<svg xmlns="http://www.w3.org/2000/svg" width="107" height="40" viewBox="0 0 107 40">
  <g id="velox-dumo" transform="translate(-558.005 -612.721)">
    <rect id="Rectangle_3899" data-name="Rectangle 3899" width="107" height="40" rx="7" transform="translate(558.005 612.721)" fill="#eff0f2"/>
    <g id="velox-b" transform="translate(573.051 625.137)">
      <path id="text2537" d="M4.12-711.739-.572-700.878-5.2-711.739H-9l6.56,15.205H1.035l6.582-15.205Zm8.257,12.381v-3.519h7.059v-2.737H12.377v-3.3h7.993v-2.824H8.88v15.205H20.653v-2.824Zm11.081,2.824H34.6V-699.4H26.977v-12.338H23.458Zm20.226.26c4.779,0,8.319-3.323,8.319-7.863S48.463-712,43.684-712c-4.8,0-8.319,3.345-8.319,7.863S38.884-696.274,43.684-696.274Zm0-3a4.638,4.638,0,0,1-4.757-4.866A4.638,4.638,0,0,1,43.684-709a4.638,4.638,0,0,1,4.757,4.866A4.638,4.638,0,0,1,43.684-699.271Zm24.071,2.737L62.086-704.4l5.3-7.342h-3.8l-3.432,4.931-3.5-4.931h-4L58-704.267l-5.626,7.733h4.04l3.606-5.278,3.671,5.278Z" transform="translate(9 712)" fill="#7d8184"/>
      <path id="path2539" d="M8641.441-3297.722l-3.239,4.892.549.363,2.476-3.726v4.179h-3.184v.658h7.022v-.658h-3.183v-4.088l2.475,3.634.547-.363Z" transform="translate(-8588.799 3301.855)" fill="#7d8184"/>
    </g>
  </g>
</svg>
