<svg xmlns="http://www.w3.org/2000/svg" width="120" height="40" viewBox="0 0 120 40">
  <g id="wip-dumo" transform="translate(-979.999 -612.948)">
    <rect id="Rectangle_3902" data-name="Rectangle 3902" width="120" height="40" rx="7" transform="translate(979.999 612.948)" fill="#eff0f2"/>
    <g id="Image_1" data-name="Image 1" transform="translate(993.356 622.251)">
      <path id="rgba_55_53_54_0.99_" data-name="rgba(55,53,54,0.99)" d="M958,184h4.878l.044.352h-4.79L958,184.22Z" transform="translate(-927.158 -167.494)" fill="#787879"/>
      <path id="rgba_55_53_54_0.99_2" data-name="rgba(55,53,54,0.99)" d="M319.625,62l.352.132,1.67,4.483.22.308,1.45-4.175-.088-.22-.7-.176v-.264h.659l.088.088h.791l.088-.088h.571l-.132.352h-.264l-.4.308-2.285,6.24V69.3H321.3v-.132l-1.758-4.7h-.176v.132l-1.67,4.7-.352-.132-2.285-6.152-.308-.483-.439-.088L314,62.22l.044-.132h1.143l.088.088h.791l.088-.088h1.011v.264h-.22l-.352.088-.22.22v.264l.967,2.461v.264l.571,1.274.659-1.626v-.264Z" transform="translate(-285.531 -56.392)" fill="#787879"/>
      <path id="rgba_55_53_54_0.99_3" data-name="rgba(55,53,54,0.99)" d="M585.735,62h.308v.22l.879,1.934,1.318,3.516.571,1.1.659.308v.22h-.132l-.088-.088H586.79l-.176.088-.132-.22.615-.22.088-.4-.527-1.494-.22-.22h-2.2l-.132.132-.615,1.758.22.22.571.22v.22h-.132l-.088-.088H582.22l-.088.088L582,69.163l.132-.22.659-.176,2.725-6.548Zm-.308,1.846-.264.352-.791,2.109h1.934l-.088-.527-.7-1.67v-.264Z" transform="translate(-529.976 -56.392)" fill="#787879"/>
      <path id="rgba_55_53_54_0.99_4" data-name="rgba(55,53,54,0.99)" d="M880.208,62h1.318l1.362.264.088,1.011.176.659h-.308l-.132-.132-.176-.527-.4-.483-.527-.264h-1.406l-.791.352-.4.4-.527.967-.088.439v1.494l.527,1.494.571.659,1.055.527h.967l.527-.176.571-.483.352-.835.22-.088.22.132-.352.879-.088.615-.22.308h-.439l-.088.088h-2.549l-1.318-.527-.747-.747-.352-.615L877,66.526v-1.67l.615-1.406.747-.747.791-.439Z" transform="translate(-799.047 -56.392)" fill="#787879"/>
      <path id="rgba_55_53_54_0.99_5" data-name="rgba(55,53,54,0.99)" d="M958.735,62h.308v.22l2.461,5.889.088.439.22.22.659.308v.22h-.132l-.088-.088H959.79l-.176.088-.132-.22.615-.22.088-.4-.527-1.494-.22-.22h-2.2l-.132.132-.615,1.758.22.22.571.22-.132.22-.088-.088H955.22l-.088.088L955,69.163l.132-.22.439-.088.4-.4,2.461-6.065Zm-.483,1.846-.791,2.373v.088h1.934l-.879-2.285Z" transform="translate(-870.192 -56.392)" fill="#787879"/>
      <path id="rgba_55_53_54_0.99_6" data-name="rgba(55,53,54,0.99)" d="M443,63l1.8.088L444.89,63H445.9v.264h-.132l-.659.308v5.977l.22.22.571.088v.352h-.132l-.088-.088H443.22l-.22.088v-.352h.4l.4-.308V63.571l-.132-.132L443,63.264Z" transform="translate(-403.193 -57.304)" fill="#787879"/>
      <path id="rgba_55_53_54_0.99_7" data-name="rgba(55,53,54,0.99)" d="M487,63h.923l.088.088h2.9l.879.352.483.483.264.7v.791l-.176.527-.659.747-1.23.439H489.2V69.46l.22.22.791.176.132.132-.132.22-.088-.088h-2.9l-.132.044v-.308h.308l.483-.308.088-.352-.088-.264V63.571l-.132-.132L487,63.264Zm2.461.439-.088.088-.176.088V66.6h.967l.527-.264.264-.264.176-.527v-.791l-.176-.615-.7-.615h-.7Z" transform="translate(-443.325 -57.304)" fill="#787879"/>
      <path id="rgba_55_53_54_0.99_8" data-name="rgba(55,53,54,0.99)" d="M674,63h.923l.088.088H678l.088-.088h.967l.132.132.088.967.176.571-.352-.132-.176-.439-.483-.483-.176-.088H676.2V66.34h1.714l.352-.791.22.044v2.153l-.352-.22v-.264l-.22-.4H676.2v2.725l.4.176.659.088v.352h-.4l-.088-.088H674.22l-.22.088v-.352h.308l.571-.4v-5.8l-.22-.22L674,63.264Z" transform="translate(-613.889 -57.304)" fill="#787879"/>
      <path id="rgba_55_53_54_0.99_9" data-name="rgba(55,53,54,0.99)" d="M746,63h.923l.088.088h2.9l1.187.659.352.615.088.879-.176.527-.571.659-.571.264.088.308,1.494,2.2.571.571.659.176-.044.264h-1.055l-.088-.088h-.7l-.659-.571-1.67-2.593h-.571L748.2,67V69.46l.4.308.659.088-.044.352-.088-.088h-2.9l-.088.088L746,70.075l.132-.22.527-.088.22-.22V63.659l-.22-.22L746,63.264Zm2.461.439-.088.088-.176.088v2.813l1.318-.088.44-.439.176-.439V64.67l-.264-.615-.615-.527h-.7Z" transform="translate(-679.561 -57.304)" fill="#787879"/>
      <path id="rgba_55_53_54_0.99_10" data-name="rgba(55,53,54,0.99)" d="M833,63l1.8.088L834.89,63H835.9v.264h-.132l-.659.308v6.065l.132.044.659.308-.132.22-.088-.088H833.22l-.22.088v-.352h.4l.4-.308V63.659l-.088-.22-.7-.176Z" transform="translate(-758.914 -57.304)" fill="#787879"/>
      <path id="rgba_55_53_54_0.99_11" data-name="rgba(55,53,54,0.99)" d="M958,184h4.878l.044.352h-4.79L958,184.22Z" transform="translate(-872.928 -167.669)" fill="#787879"/>
      <path id="rgba_37_151_83_1_" data-name="rgba(37,151,83,1)" d="M17.717,1H18.6l.527.176.4.4.088.352-.176.571,1.67.923v.132h-.22l-1.934-1.23-.527-.264h-.308V2.89l.22.22,2.2,1.318.747.264v.264h-.132l-2.2-1.318-.527-.264h-.308v.835l.22.22,2.9,1.67.176-.352.22,1.714.4.571,1.055.176,2.461.879,2.2,1.318,1.187.967,1.406,1.714.967,1.934.352,1.494v2.022l-.176.967-.352.879v.527l1.23.7-.132-.044-3.955-1.055-2.373-.439-1.143-.088-.088-.088H23.87l-.791-.176H22.024l-.088-.088H16.311l-.088.088h-.967l-.791.176h-.879l-.088.088h-.527l-2.109.439h-.439l-2.285.615H7.785l-2.285.7.088-.176,1.538-.835L6.6,19.15l-.088-2.373.088-.088v-.7l.527-1.67L8.269,12.47l1.274-1.362L11.477,9.7,14.07,8.427l.088-1.934.088-.088.176-2.2.088-.352.22-.22,1.758-.879.22-.22V2.274L16.53,2.1V1.747l.088-.308.4-.264Zm.4,3.691.176.967,2.988,1.758h.264l-.088-1.055-.791-.352L18.64,4.779Zm.176,1.318-.088.352.088.264-.088.264,3.076,1.846.439.088L21.54,7.68l-.7-.264L19.079,6.274Zm0,1.318-.088.264.088.439-.088.176,3.428,2.022.176-.088-.088-.791-.439-.527-2.2-1.23Zm0,1.23-.088.264.088.7,3.428,2.109h.176v-.967L18.816,8.735Zm3.6,0V9.613l.176.527v.439l.176.352,3.164,4.483.352.264h.791l1.055.264-1.055.176-.176.176.439,1.143,1.143,2.022.615.439,1.143.352.615.352h.264l.439-1.406.088-1.143.088-.088v-.7l-.088-.088v-.615l-.176-.879-.439-1.23-.879-1.406-.879-1.055-1.318-1.23-2.2-1.23L23.21,8.735Zm-8.262.7-1.67.791-1.846,1.318L8.8,12.69,7.829,14.1l-.615,1.582v.352l-.176.439v2.2l.527,1.758.615-.088.791-.439,1.758-.615.088-.088.176-2.461.176-.7v-.967l.088-.088v-.7l.264-1.494v-.615h.264v1.318l-.176.615-.176,2.109-.176.615v.791l-.176.7v.7H11.7l.615-.264.615-.088.088-.088.264-3.164.088-.088v-.879l.176-.791v-.791l.088-.088v-.7l.088-.088v-.7l.088-.088.176-1.758-.088-.176Zm4.658.615v.879l.088.176,3.6,2.109V11.9l-1.055-.527-2.109-1.318Zm.088,1.406v.967L21.628,14.1l.264.352-2.9-1.67-.615-.176-.088.352.088.088v.527L21.8,15.5h.088v.176l.088.088-3.6-1.934-.088.352.088.7.879.352,2.813,1.846v.088l-3.34-1.934-.264.088v.879L20.4,17.348l1.143.615.791.264.176-.088v-.967l-.176-.615V15.414l-.264-1.406v-.7l-.967-.527-2.373-1.494Zm4.043.439v1.23l.176.527V14.1l.352,1.846.264,2.373.176.088.791.088,1.143.352h.352l.088-.088L25.32,17l-.439-1.143L24.7,15.59h-.615l-.439-.615v-.352l-.791-2.109Zm-3.867,4.746-.088,1.494h2.373v-.088Z" transform="translate(-4.145 -0.754)" fill="#787879"/>
      <path id="rgba_37_151_83_1_2" data-name="rgba(37,151,83,1)" d="M588.659,172h.264l.4.22v.22h-.132l-.088-.088h-.527l-.132.132v.4l.659.264.308.308v.615l-.308.308-.176.088h-.7l-.22-.22v-.176l.132.044.615.088.308-.22v-.264l-.308-.308-.352-.088-.4-.4v-.439l.176-.308Z" transform="translate(-535.448 -156.724)" fill="#787879"/>
      <path id="rgba_37_151_83_1_3" data-name="rgba(37,151,83,1)" d="M772.923,172l.615.088.483.4.176.439v.527l-.176.527-.308.308-.264.176h-.791l-.483-.264-.176-.4v-1.055l.483-.571Zm-.132.352-.439.527.088,1.055.439.264.615-.088.264-.439v-.791l-.176-.439-.176-.088Z" transform="translate(-703.276 -156.724)" fill="#787879"/>
      <path id="rgba_37_151_83_1_4" data-name="rgba(37,151,83,1)" d="M927.659,172h.352l.308.22-.044.22-.439-.176-.308.088-.088.308.22.308.439.176.4.4v.439l-.22.308-.264.176h-.7l-.308-.22.044-.22.352.176h.439l.22-.22v-.352l-.571-.308-.4-.4v-.439l.22-.308Z" transform="translate(-844.653 -156.724)" fill="#787879"/>
      <path id="rgba_37_151_83_1_5" data-name="rgba(37,151,83,1)" d="M411,173h.308l.132.132v.439l.352,1.274h.176v-.22l.439-1.626h.308l.132.132.264,1.23.308.571.4-1.45v-.352l.132-.132h.22v.4l-.352,1.318-.308.659h-.352l-.132-.132-.4-1.538-.308.659-.088.7-.22.308h-.352l-.132-.132Z" transform="translate(-374.005 -157.636)" fill="#787879"/>
      <path id="rgba_37_151_83_1_6" data-name="rgba(37,151,83,1)" d="M453,173h1.274l.044.264h-.835l-.132.132v.439l.132.132h.659v.264h-.659l-.132.132v.615l.132.132h.791l.044.264h-1.187l-.132-.132Z" transform="translate(-412.314 -157.636)" fill="#787879"/>
      <path id="rgba_37_151_83_1_7" data-name="rgba(37,151,83,1)" d="M472.835,173h.439l.044.132.527,1.23.264,1.011h-.352v-.132l-.308-.483h-.879l-.044.132-.176.483H472v-.132Zm.22.439-.352.7v.352h.7l-.264-.879v-.176Z" transform="translate(-429.644 -157.636)" fill="#787879"/>
      <path id="rgba_37_151_83_1_8" data-name="rgba(37,151,83,1)" d="M502,173l.352.044v1.934l.308.132.352-.088.132.352H502Z" transform="translate(-457.007 -157.636)" fill="#787879"/>
      <path id="rgba_37_151_83_1_9" data-name="rgba(37,151,83,1)" d="M514,173h1.714l.044.264h-.615v.659l-.088.967.088.264-.132.22-.308-.044v-2.065H514Z" transform="translate(-467.952 -157.636)" fill="#787879"/>
      <path id="rgba_37_151_83_1_10" data-name="rgba(37,151,83,1)" d="M539,173h.352v.747l.132.22h.879l.132-.132V173h.352v2.329l-.352.044v-1.011l-.132-.044h-.176l-.527-.088-.308.22v.879l-.22.044-.132-.132Z" transform="translate(-490.755 -157.636)" fill="#787879"/>
      <path id="rgba_37_151_83_1_11" data-name="rgba(37,151,83,1)" d="M578,173l.352.044v2.329l-.352-.044Z" transform="translate(-526.327 -157.636)" fill="#787879"/>
      <path id="rgba_37_151_83_1_12" data-name="rgba(37,151,83,1)" d="M611,173l.352.044v1.934l.132.132h.615l.132.132-.132.132H611Z" transform="translate(-556.427 -157.636)" fill="#787879"/>
      <path id="rgba_37_151_83_1_13" data-name="rgba(37,151,83,1)" d="M627.835,173h.44l.132.132.7,2.241H628.8l-.132-.132v-.264l-.22-.22h-.879l-.132.132-.088.483H627v-.22Zm.132.439-.352.967.176.088h.615v-.264l-.264-.527v-.264Z" transform="translate(-571.02 -157.636)" fill="#787879"/>
      <path id="rgba_37_151_83_1_14" data-name="rgba(37,151,83,1)" d="M656.088,173h.483l.132.132.835,1.538.132-.132v-1.23l-.088-.176.352-.132v2.329l-.044.044h-.352l-.22-.22-.791-1.626-.176.044v1.758l-.22.044-.132-.132V173.22Z" transform="translate(-597.471 -157.636)" fill="#787879"/>
      <path id="rgba_37_151_83_1_15" data-name="rgba(37,151,83,1)" d="M686,173h1.011l.659.264.264.659v.439l-.176.527-.308.308-.527.176H686Zm.527.264-.176.176v1.582l.176.088.615-.088.352-.439-.088-.967-.352-.352Z" transform="translate(-624.835 -157.636)" fill="#787879"/>
      <path id="rgba_37_151_83_1_16" data-name="rgba(37,151,83,1)" d="M724.132,173h.967l.483.4v.615l-.4.4-.7.088-.132.132v.7l-.22.044-.132-.132v-2.109Zm.308.264-.088.264v.527l.088.176.615-.088.176-.264-.088-.527Z" transform="translate(-659.495 -157.636)" fill="#787879"/>
      <path id="rgba_37_151_83_1_17" data-name="rgba(37,151,83,1)" d="M748,173h1.1l.4.22.088.615-.088.22-.352.22.527.791v.308h-.352v-.132l-.264-.615-.308-.308h-.308v.132l-.088.088v.835l-.352-.044Zm.439.264-.088.352v.352l.176.088h.439l.176-.088.088-.176-.088-.352-.088-.176Z" transform="translate(-681.385 -157.636)" fill="#787879"/>
      <path id="rgba_37_151_83_1_18" data-name="rgba(37,151,83,1)" d="M803,173h1.011l.483.308.088.527-.308.483-.439.176h-.352l-.132.132v.747H803Zm.527.264-.176.176v.7l.176.088.527-.088.088-.176v-.439l-.176-.264Z" transform="translate(-731.551 -157.636)" fill="#787879"/>
      <path id="rgba_37_151_83_1_19" data-name="rgba(37,151,83,1)" d="M827,173h1.274l.044.132-.132.132h-.7l-.132.132v.439l.132.132h.659v.264h-.659l-.132.132v.615l.132.132h.791l.044.264H827Z" transform="translate(-753.442 -157.636)" fill="#787879"/>
      <path id="rgba_37_151_83_1_20" data-name="rgba(37,151,83,1)" d="M849,173h1.1l.4.308.088.352-.308.483h-.132v.132l.439.7.088.4h-.308l-.132-.132-.264-.7-.22-.22h-.264l-.132.132v.923H849Zm.527.264-.176.176v.527l.176.088h.439l.176-.176v-.352l-.176-.264Z" transform="translate(-773.508 -157.636)" fill="#787879"/>
      <path id="rgba_37_151_83_1_21" data-name="rgba(37,151,83,1)" d="M871,173h1.626l.044.264h-.615v2.065l-.352.044-.088-1.011.088-.264-.088-.176.088-.439-.088-.22H871Z" transform="translate(-793.575 -157.636)" fill="#787879"/>
      <path id="rgba_37_151_83_1_22" data-name="rgba(37,151,83,1)" d="M895.088,173l.352.044v2.329h-.308l-.132-.132v-1.23l.088-.352L895,173.22Z" transform="translate(-815.465 -157.636)" fill="#787879"/>
      <path id="rgba_37_151_83_1_23" data-name="rgba(37,151,83,1)" d="M908,173h1.187l.132.132-.132.132h-.835v.7h.791v.264h-.659l-.132.132v.615l.132.132h.791l.044.264H908Z" transform="translate(-827.323 -157.636)" fill="#787879"/>
      <path id="rgba_151_186_165_0.49_" data-name="rgba(151,186,165,0.49)" d="M546.5,72l.088.176Z" transform="translate(-497.596 -65.513)" fill="#787879"/>
      <path id="rgba_151_186_165_0.49_2" data-name="rgba(151,186,165,0.49)" d="M550.044,81l.044.835H550Z" transform="translate(-500.788 -73.722)" fill="#787879"/>
      <path id="rgba_151_186_165_0.49_3" data-name="rgba(151,186,165,0.49)" d="M547.588,96l-.088.176Z" transform="translate(-498.508 -87.404)" fill="#787879"/>
      <path id="rgba_151_186_165_0.49_4" data-name="rgba(151,186,165,0.49)" d="M340.588,183l-.088.176Z" transform="translate(-309.702 -166.757)" fill="#787879"/>
      <path id="rgba_252_255_255_0.01_" data-name="rgba(252,255,255,0.01)" d="M550.588,76l-.088.176Z" transform="translate(-501.244 -69.162)" fill="#787879"/>
      <path id="rgba_252_255_255_0.01_2" data-name="rgba(252,255,255,0.01)" d="M339.044,187l.088.176H339Z" transform="translate(-308.333 -170.406)" fill="#787879"/>
    </g>
  </g>
</svg>
