<svg xmlns="http://www.w3.org/2000/svg" width="120" height="40" viewBox="0 0 120 40">
  <g id="wip-global-dumo" transform="translate(-979.999 -612.948)">
    <rect id="Rectangle_3902" data-name="Rectangle 3902" width="120" height="40" rx="7" transform="translate(979.999 612.948)" fill="#eff0f2"/>
    <g id="_1706547849587" data-name="1706547849587" transform="translate(991.958 622.227)">
      <g id="Group_13522" data-name="Group 13522">
        <path id="rgba_33_112_67_0.99_" data-name="rgba(33,112,67,0.99)" d="M10,0h1.447l.091.09L12.8.181l2.078.634a11.076,11.076,0,0,1,3.847,2.759,11.29,11.29,0,0,1,2.081,3.438l.543,2.171.091,2.262-.09.09-.09,1.267-.634,2.079a11.076,11.076,0,0,1-2.76,3.845,11.29,11.29,0,0,1-3.438,2.081l-2.171.543L10,21.442l-.09-.09-1.267-.09-2.079-.634a11.124,11.124,0,0,1-3.936-2.85A10.629,10.629,0,0,1,.636,14.43L.09,12.259,0,10l.09-.091L.181,8.64.815,6.561A11.076,11.076,0,0,1,3.574,2.714,11.459,11.459,0,0,1,6.561.815L8.64.181,9.906.09ZM9.863,1.267l-1.357.271-.181.181V2.9l1.63-.362h1.624l2.171.543a9.4,9.4,0,0,1,2.624,1.719,10.2,10.2,0,0,1,1.809,2.8l.362,1.176.09,1,.092.092v1.447l-.271,1.447a8.5,8.5,0,0,1-1.719,3.167,7.85,7.85,0,0,1-4.975,2.624H9.771L8.5,18.277a6.952,6.952,0,0,1-3.076-1.719,1.372,1.372,0,0,1-.724-.815l5.971-5.068h.181l3.981,3.438.362.271h.181v-8.6H14.2l-.181.181v5.608l.09.09-3.348-2.8-3.438,2.9-.09-9.77A7.715,7.715,0,0,0,4.7,3.529,8.92,8.92,0,0,0,2.26,6.786l-.63,1.99-.09,1.357-.09.09.09,1.719L1.9,13.48A10.936,10.936,0,0,0,3.62,16.557a9.787,9.787,0,0,0,2.714,2.171l1.719.724,1.811.361h1.809l1.809-.362a8.5,8.5,0,0,0,3.167-1.719,8.153,8.153,0,0,0,2.081-2.444l.9-2.079.362-1.809V9.77l-.543-2.351a8.583,8.583,0,0,0-1.719-2.9,9.306,9.306,0,0,0-3.348-2.533l-1-.361-1.719-.362ZM9.409,12.937V14.2h1.267V12.937Zm1.719,0V14.2h1.357V12.937Zm-1.719,1.63v1.356h1.267V14.566Zm1.9,0-.181.181v1.175h1.357V14.747l-.09-.181Z" fill="#787879"/>
        <path id="rgba_33_112_67_0.99_2" data-name="rgba(33,112,67,0.99)" d="M33.121,46l.045,8.73L31.13,56.495a8.026,8.026,0,0,1-.95-2.307l-.09-1.176-.09-.09V51.835l.362-1.9L31,48.487A8.313,8.313,0,0,1,33.121,46Z" transform="translate(-27.286 -41.838)" fill="#787879"/>
      </g>
      <path id="rgba_33_112_67_0.99_3" data-name="rgba(33,112,67,0.99)" d="M539.491,87.783h1.175l1.719.452.226-.452q.335-.117.181.407l.091.09.09,1.673-.271-.136a2.035,2.035,0,0,0-.858-1.221,2.908,2.908,0,0,0-2.262-.452,2.554,2.554,0,0,0-1.764,1.131,3.064,3.064,0,0,0-.543,1.357V92.08a3.587,3.587,0,0,0,1.131,2.036l1.267.633h1.267l.95-.407V91.719l-.317-.316-.678-.09.045-.181h2.94q.129.335-.407.181l-.316.226-.091.181v2.714l-.135.136-1.357.452-1.99.09-.9-.181-1.086-.452-1.04-.95a3.124,3.124,0,0,1-.633-2.352,3.917,3.917,0,0,1,1.493-2.579l.724-.452Z" transform="translate(-487.424 -79.822)" fill="#787879"/>
      <path id="rgba_33_112_67_0.99_4" data-name="rgba(33,112,67,0.99)" d="M714.811,88h1l1,.271a4.405,4.405,0,0,1,1.672,1.312l.452.9.181,1.267q-.244.163-.091.724l-.452,1.086-.858.95-1.176.633-.815.181H714.63a3.921,3.921,0,0,1-2.669-1.583,3.69,3.69,0,0,1-.543-2.9,3.16,3.16,0,0,1,1.312-2.036l1.176-.633Zm.045.362-1.085.453-.815,1.086-.271,1.086.091,1.9.724,1.447a2.516,2.516,0,0,0,1.266.633h1l.9-.362.544-.543.362-.724.181-.815V90.986l-.271-1.086-.362-.633A2.308,2.308,0,0,0,714.856,88.362Z" transform="translate(-647.001 -80.038)" fill="#787879"/>
      <path id="rgba_33_112_67_0.99_5" data-name="rgba(33,112,67,0.99)" d="M894.711,87.545q.334-.135.271.136l2.623,5.609.679,1.04a.885.885,0,0,0,.769.181l-.045.181h-3.031q-.129-.335.407-.181l.317-.226.091-.271-2.217-5.2-2.217,4.75-.09.633q.226.434.9.316l-.045.181h-2.4q-.108-.271.226-.181l.678-.5Z" transform="translate(-810.118 -79.583)" fill="#787879"/>
      <path id="rgba_33_112_67_0.99_6" data-name="rgba(33,112,67,0.99)" d="M264,90h2.85l.045.181a.652.652,0,0,0-.724.226v.543l1.764,4.388,1.221-2.94.09-.543-.452-1.086-.5-.5-.588-.226L270.786,90q.129.362-.5.181l-.226.09-.091.586,1.764,4.478,1.493-3.664.271-.815V90.5a.684.684,0,0,0-.815-.316L272.73,90h2.217q.118.3-.316.181l-.588.5L271.6,97.147l-.362-.136-1.673-4.3-1.9,4.433q-.2.072-.136-.136l-2.444-6.062-.5-.678-.586-.09Z" transform="translate(-240.115 -81.857)" fill="#787879"/>
      <path id="rgba_33_112_67_0.99_7" data-name="rgba(33,112,67,0.99)" d="M390,90h3.3l.045.181q-.815-.154-1.086.316l-.09.452v5.157l.09.362.226.226.858.09-.045.181H390l.045-.181h.633l.317-.181.09-.226V90.589l-.09-.226a1.244,1.244,0,0,0-.995-.182Z" transform="translate(-354.716 -81.857)" fill="#787879"/>
      <path id="rgba_33_112_67_0.99_8" data-name="rgba(33,112,67,0.99)" d="M432.87,90h3.755q.118.2.543.09a2.367,2.367,0,0,1,1.4.95,1.71,1.71,0,0,1,.271,1.086l-.181.633-.5.588-1,.452h-1.72l-.407-.09V96.2l.316.5.858.09-.045.181h-3.3q-.1-.316.588-.181l.407-.316.091-.181V90.678l-.317-.407-.769-.09Zm2.714.362-.09.09q-.452-.09-.452.09v2.9l.543.09a1.422,1.422,0,0,0,1.357-.271,1.621,1.621,0,0,0,.543-.815,1.872,1.872,0,0,0-.181-1.267,1.6,1.6,0,0,0-1.719-.814Z" transform="translate(-393.695 -81.857)" fill="#787879"/>
      <path id="rgba_33_112_67_0.99_9" data-name="rgba(33,112,67,0.99)" d="M629,90h3.483l.045.181a1.108,1.108,0,0,0-1.176.316l-.09.181V96.2l.09.226.226.09h2.533a1.828,1.828,0,0,0,1.131-.769l.407-.678.135.045-.633,1.855h-6.107L629,96.785q.815.163,1.086-.316l.09-.452V90.95l-.09-.452-.227-.226-.858-.09Z" transform="translate(-572.091 -81.857)" fill="#787879"/>
      <path id="rgba_33_112_67_0.99_10" data-name="rgba(33,112,67,0.99)" d="M804,90h4.478l1.266.362.769.678a1.661,1.661,0,0,1,.181,1.176l-.5.769-.858.407a2.23,2.23,0,0,1,1.538.9,1.406,1.406,0,0,1,.181,1.176l-.679.95-.452.271-1.086.271H804l.045-.181h.633l.316-.226.181-.543V90.95l-.318-.678-.858-.09Zm3.348.271-.09.09h-.815l-.181.181v2.624h.815l.09.09,1.266-.09.452-.181a1.467,1.467,0,0,0,.633-.9,1.029,1.029,0,0,0-.181-.9,1.743,1.743,0,0,0-.9-.724l-1-.09Zm-.815,3.257-.091.09-.181.09v2.8l.452.09h1.63l1-.452.362-.543-.091-1.086a1.939,1.939,0,0,0-1.267-.9Z" transform="translate(-731.26 -81.857)" fill="#787879"/>
      <path id="rgba_33_112_67_0.99_11" data-name="rgba(33,112,67,0.99)" d="M987,90h3.483l.045.181a1.108,1.108,0,0,0-1.176.316l-.09.181V96.2l.09.226.226.09h2.533a1.8,1.8,0,0,0,1.131-.769l.407-.678.135.045-.633,1.855h-6.107L987,96.785q.815.163,1.086-.316l.091-.362V90.858l-.091-.362-.227-.224-.858-.09Z" transform="translate(-897.702 -81.857)" fill="#787879"/>
    </g>
  </g>
</svg>
